<?xml version="1.0" encoding="UTF-8"?><svg id="Layer_4" xmlns="http://www.w3.org/2000/svg" xmlns:xlink="http://www.w3.org/1999/xlink" viewBox="0 0 2292 1423"><defs><style>.cls-1{fill:none;}.cls-2{fill:#9966cb;}.cls-3{fill:url(#New_Pattern);}</style><pattern id="New_Pattern" x="0" y="0" width="218.48" height="209.44" patternTransform="translate(170 143)" patternUnits="userSpaceOnUse" viewBox="0 0 218.48 209.44"><rect class="cls-1" x="0" width="218.48" height="209.44"/><path class="cls-2" d="M98.92,61.09c.98-.86,1.27-1.89,2.78-2.17,2.22-.42,3.42,2.1,6.44,1.19.96-.29,3.16-1.58,2.36-2.79l-5.85-7.6c.68-.71,1.53-1.32,2.16-2.12,1.87-2.35,2.67-5.86,2.19-8.79-.09-.56-.35-1.19-.45-1.74-.78-4.25-1.26-9.15-2.3-13.26-.66-2.61-2.45-4.98-4.76-6.39-.84-.51-1.82-.78-2.67-1.22l2.96-9.21c.18-.89-.68-1.23-1.38-1.48-1.3-.48-2.9-.3-4.06.44-1.48.95-1.92,2.71-4.03,2.59-1.18-.07-1.71-.73-2.72-1.11-1.65-.64-3.88-.17-5.09,1.13-.21.22-.36.56-.56.8l.23.69,5.89,7.67c0,.14-1.23,1.11-1.46,1.34-2.1,2.19-3.26,5.23-2.98,8.26.49,5.3,2.21,10.92,2.82,16.26.65,2.65,2.43,5.03,4.77,6.46.84.51,1.82.78,2.67,1.22l-2.96,9.21.1.79.64.45c1.61.86,3.88.6,5.26-.6ZM96.72,15.82l-.12-3.94c-.31-.78-1.33-.63-1.46.18l.11,3.69-.13.25-1.75.22-1.27-3.71c-.54-.71-1.51-.31-1.38.59l1.21,3.65-.41.2-5.75-7.47c.88-.82,2.27-1.11,3.38-.63,1.56.68,2.15,1.47,4.09,1.13s2.22-1.28,3.46-2.45c.88-.82,2.23-1.01,3.33-.59l.06.32c-1.07,2.62-1.61,5.74-2.69,8.32-.06.15-.11.31-.25.41l-.43-.18ZM104.42,33.05c-1.9-.38-3.2.74-5.05-.92-1.71-1.53-.81-3.92-3.45-5.64-2.79-1.83-5.68.66-7.66-2.58-.4-.66-.5-.97-.13-1.66,2.83-5.36,9.43-6.24,13.99-2.5,1.77,1.45,2.45,3.38,2.92,5.52.62,2.83.94,5.82,1.47,8.68-.59-.41-1.38-.75-2.08-.89ZM104.05,41.83c-1.8-.49-3.28.55-4.98-.82s-.97-3.78-3.32-5.43c-2.64-1.85-5.48.54-7.34-2.45-.61-.97-1.16-4.61-1.25-5.88-.02-.25-.11-2.05.1-2.08.91,1.15,2.22,1.94,3.69,2.1,1.28.13,2.49-.43,3.76.29,2.57,1.44,1.59,3.7,3.5,5.55,1.75,1.69,2.95,1.41,5.06,1.37,3.01-.05,3.87,2.3,4.2,4.79.21,1.58.2,3.22-.41,4.73-.76-1.05-1.74-1.83-3-2.17ZM90.4,36.24c1.83.39,2.99-.66,4.77.83,1.65,1.38.89,3.65,3.21,5.31,2.46,1.76,4.68-.05,6.69,1.65.32.27,1.21,1.46,1.02,1.85-.51,1.12-2.23,2.48-3.32,3.06-4.66,2.45-10.53.23-12.5-4.65-.61-1.52-1.64-6.87-1.7-8.53,0-.12-.08-.21.05-.32.51.43,1.14.66,1.79.8ZM98.06,55.35c.19.89,1.23.94,1.5.09l-.06-3.92.09-.1c.42.2,1.3-.28,1.6-.27.12,0,.2.05.24.17l1.14,3.52c.44.74,1.45.46,1.44-.39l-1.22-3.68.5-.32,5.65,7.48c-.43.38-.97.69-1.53.8-2.11.43-3.36-1.79-5.97-1.32-1.88.34-2.22,1.32-3.43,2.45-.85.8-2.26,1-3.33.59l-.09-.1,2.81-8.83c.09-.19.54-.05.6.07l.07,3.74Z"/><path class="cls-2" d="M154.85,105.65c-.62.56-.79,2.28-.77,3.1-.73.04-2.13.23-2.53.93s-.27,1.99-.04,2.74c-1.68.26-3.43.5-2.45,2.65.19.41.47.84.83,1.11-.38.52-1.15.83-1.59,1.37-.9,1.11-.36,2.35.67,3.11-.59.7-1.78,1.86-1.75,2.85.02.77,1.81,1.92,2.51,2.1-.71,1.05-1.11,2.01-.89,3.29.11.65.31,1.3,1,1.49,3.23.88,8.61-.63,11.4-2.36,2.03-1.26,3.96-4.13,6.53-2.52,1.4.88,1.54,2.48,2.22,3.84,1.56,3.13,4.44,6,7.57,7.56.72.36,1.78.99,2.49.52,1.27-.82,1.78-2.43,1.52-3.88.08-.16,2.81.3,3.33-.82.3-.64.07-2.4-.32-3.02.13-.28,2.08-.54,2.28-1.87.08-.58-.53-1.94-.86-2.46l.02-.17c.69-.27,1.38-.55,1.87-1.13.77.29,2.17.84,2.96.5.75-.32,1.39-1.57,1.67-2.3.81.33,1.62.82,2.52.73,1.13-.11,1.13-2.09,1.05-2.95.79.1,2.49.05,2.92-.69s.47-1.6.28-2.39c.74-.12,2.61-.59,3-1.25.45-.75-.37-2.56-.85-3.21.97-.35,1.9-.91,2.41-1.85.97-1.78.45-2.13-1.17-2.95-1.32-.67-3.07-1.35-4.49-1.79-2.9-.9-7.49-.45-7.92-4.36-.21-1.95,1.03-3.02,1.91-4.56,1.22-2.14,2.34-4.43,2.91-6.84.11-.46.33-1.11.05-1.51-.73-1.03-3.41-1.24-4.36-.31l-.15-.07c-.23-.82-.86-2.56-1.8-2.75-.67-.14-2.46.77-2.82,1.4-.34-.33-.52-.69-.92-.99-1.67-1.23-2.5-.02-3.7,1.13-.43-.63-1.14-1.22-1.88-1.42-1.25-.34-1.84,1.68-2.06,2.61-.87-.42-2.4-.97-3.19-.2-.67.65-.76,1.34-.92,2.2-.54-.35-2.72-.23-3.13.17-.76.74-.37,2.41-.24,3.33-1.43.08-2.98.73-3.64,2.1-.37.77.66,2.05,1.13,2.68,2.15,2.86,4.92,4.85,8.31,6.05,1.91.68,4.36.36,5.23,2.62.05.13.2.71.18.81-.04.27-1.25.71-1.58.89-1.48.83-2.96,1.79-4.29,2.85-1.61,1.29-2.96,3.33-5.22,3.16-3.47-.27-3.6-3.63-4.73-6.17-.64-1.44-1.54-3.08-2.46-4.36-1.06-1.48-1.7-2.63-3.45-1.01-.77.71-1.13,1.63-1.36,2.64-.62-.41-2.67-.94-3.27-.39ZM151.3,113.87c.62-.01,2.27.53,2.25-.51,0-.26-.66-1.02-.78-1.53-.37-1.56.21-1.8,1.65-1.58.47.07,1.08.51,1.53.09.55-.53-.09-.95-.31-1.41-.24-.51-.23-1.64.15-2.05.46-.51,2.77,1.26,3.39.82.58-.42.22-1.08.35-1.64.19-.77.58-1.53,1.29-1.93.23-.04.93,1.01,1.09,1.24.58.81,1.18,1.87,1.64,2.76,1.75,3.44,1.91,8.3,6.96,8.22,2.66-.04,3.88-2.02,5.77-3.52,1.79-1.42,3.88-2.72,6.01-3.53.6.63.55,1.76.24,2.52-.21.52-1.07,1.4-.09,1.77.71.27,2.3-.15,3.06.58-.11.62-.34,1.47-.86,1.86-.22.17-.66.19-.82.38-1.21,1.47,2.35,1.22,2.53,2.37.05.32-.75,1.33-1.05,1.54-.41.29-1.37.32-1.11,1.16.23.71,2.28.84,2.53,1.79-.05.26-1.22.68-1.51.78-.62.21-1.24,0-1.42.83-.12.54.53.7.83.98.27.26.98,1.58.76,1.9-.62.87-2.7.28-3.02,1.01-.28.65.48.83.79,1.18.27.31.67,1.77.43,2.09-.7.46-2.93-.3-3.33-.02-.63.42.03,1.58,0,2.35s-.22,1.32-.79,1.82c-3.19-1.16-6.09-3.69-7.79-6.61-1.45-2.49-1.38-5.35-4.98-5.85-2.41-.34-3.34,1.09-5.01,2.35-2.63,2-5.96,3.11-9.27,3.11-.35,0-1.76-.02-1.98-.12-.68-.33-.02-1.97.26-2.42.31-.5,1.16-.87.95-1.56-.16-.51-.57-.38-.9-.52-.72-.3-1.55-.58-2.05-1.21.08-.47.91-1.42,1.37-1.59.42-.15.96.14,1.22-.44.44-.97-2.23-1.62-2.07-2.64.06-.35,1.13-1.1,1.5-1.2.51-.13,1.18.11,1.37-.64.09-.62-2.44-2.31-1.75-2.83.04-.03.82-.13.95-.13ZM173.39,91.81c.38.23.56.81,1.17.49s.22-.96.22-1.48c-.02-1.48.25-2.12,1.82-1.47.64.26,1.19,1.28,1.78.91s.34-2.54.97-3.16c.97.21,1.45,2.14,2.18,2.29.83.17.82-1.04,1.19-1.63.12-.18.91-.91,1.06-.89.57.09.97.69,1.23,1.16.29.53.16,1,.84,1.23.81.27.73-.71.94-1.14s1.51-1.34,1.9-.96c.7.68.56,2.76,1.14,3.06s1.25-.54,1.77-.8c.69-.34,1.56-.4,2.22.02-.38,1.62-.91,3.23-1.64,4.74-1.52,3.16-4.67,5.76-2.69,9.49,1.49,2.8,3.97,2.56,6.61,3.18,2.35.56,4.67,1.43,6.77,2.62-.23.87-.89,1.42-1.72,1.7-.6.2-1.82.05-1.6,1.08.1.46,1.72,2.14,1.42,2.73-.45.38-1.57.74-2.13.52-.36-.14-.57-.58-1.09-.33-1.13.55.93,2.33.11,3.33-.29.35-1.57.28-1.98.13-.47-.18-.74-.66-1.33-.27s.12,1.57.16,2.23c.02.33-.06.64-.02.97-1.01.31-2.25-1.57-3.06-1.32-.73.22-.31.91-.39,1.4-.06.37-.63,1.67-1.02,1.7-1.67-.05-2.48-1.31-3.75-2.11.4-.69,1.23-1.5,1.31-2.32s-1.12-2-1.89-2.18c.55-.7,1.42-2.74.68-3.47-.59-.58-1.96-.93-2.79-.94.49-1.22.43-3.15-.56-4.11-.23-.22-.6-.35-.71-.5-.08-.1-.33-1.15-.5-1.47-1.15-2.18-2.6-2.03-4.62-2.58-2.31-.63-4.13-1.47-6-2.97-1.48-1.19-2.66-2.59-3.69-4.17.24-.81,1.25-1.28,2.03-1.3.52-.01,1.48.36,1.8-.11.44-.65-.04-.99-.19-1.58-.08-.32-.38-1.8-.14-1.98.78-.1,1.46-.15,2.16.29Z"/><path class="cls-2" d="M162.07,121.43c4.04-1.59,9.15,0,11.94,3.25.41.48.29.79-.17,1.21-.56.22-2.14-1.43-2.69-1.81-2.94-2.05-6.24-2.65-9.48-.92-.64.34-1.42,1.33-2.11.76-1.03-.86,1.92-2.25,2.52-2.48Z"/><path class="cls-2" d="M175.94,118.9c-.39.2-2.09.53-2.6.6-3.88.58-7.58-.46-10.05-3.66-.43-.55-1.95-2.61-.5-2.79.66-.08,1.05,1.19,1.42,1.72,2.15,3.01,5.57,3.93,9.09,3.34.51-.09,2.21-.63,2.48-.59.7.11.84,1.02.15,1.38Z"/><path class="cls-2" d="M192.46,109.52c.18.5-.27,1.07-.86.93-.54-.14-2.3-1.75-2.76-2.23-2.23-2.32-3.53-5.44-3-8.7.12-.76.77-3.89,1.91-3.31.86.43-.06,1.64-.28,2.31-1.15,3.58.41,7.07,3.09,9.45.36.32,1.8,1.3,1.89,1.56Z"/><path class="cls-2" d="M185.3,111.65c-.26.1-.79-.13-.9-.38-.09-.21-.02-1.76-.06-2.21-.3-2.99-1.87-5.79-4.63-7.16-.64-.32-2.39-.55-2.31-1.36.13-1.26,2.55-.08,3.15.23,3.19,1.69,4.99,5.08,5.21,8.6.04.59.19,2.05-.45,2.28Z"/><path class="cls-2" d="M118.76,128.1c.98-.94-1.29-3.2-1.74-4.03.36-.45.56-1.4.9-1.8.45-.53,2.87-1.41,3.68-1.83,2.41-1.24,6.83-3.76,7.39-6.61.53-2.68-3.11-4.54-5.14-5.42-1.59-.68-3.28-1.07-4.89-1.68-.68-1.66-1.2-3.35-2.07-4.93-1.94-3.54-4.72-5.97-8.12-8.05l-.16-.42c-.07-3.56-.54-13.01-6.28-10.72-2.4.96-4.7,3.37-6.37,5.31-.61.71-1.98,2.79-2.67,3.1-.47.21-1.35.18-1.88.41-.69-.64-2.28-3.25-3.41-2.69-1.64.81,1.25,2.5,1.55,3.29-1.76.75-3.56,1.64-4.91,3.02-.76-.34-3.16-1.79-3.27-.07-.06,1.02,1.3.92,1.85,1.45-3.19,4.09-3.07,9.95-1.61,14.71,2.22,7.25,7.43,13.89,13.95,17.77,4.28,2.55,9.91,4.04,14.67,1.93.37.66,0,2.21,1.13,2.16,1.57-.07.64-2.31.55-3.21,1.64-1.01,2.96-2.51,4.1-4.06.74.52,1.55,3.54,2.77,2.37ZM106.64,98.89c-.48.38.16,1.77,1.11,1.33.67-.31,3.24-2.67,3.46-2.64l1.99,1.99-6.36,4.99c-.61.48.49,1.88,1.1,1.4l6.36-4.99,1.46,2.4c-.02.22-2.93,2.15-3.39,2.73-.69.86.57,1.76,1.03,1.39l3.03-2.38c.62,1.4.54,2.78,2.17,3.45,2.3.95,4.56,1.16,6.83,2.64,1.8,1.18,2.47,2.01.93,3.81-2.45,2.85-5.82,3.53-8.78,5.26-1.16.68-1.35,1.53-1.94,2.62-1.31-.98-2.76-1.92-4.26-2.57-.75-.32-2.17-1.06-2.68-.14-.64,1.15,2.14,1.83,2.91,2.23,1.1.57,2.12,1.31,3.13,2.03-.97,1.36-2.1,2.56-3.38,3.65-.14-.02-.96-1.72-1.15-2.01-.41-.62-1.42-1.97-1.93-2.45-.72-.67-1.83.2-1.44,1.01.35.72,1.33,1.64,1.82,2.37.16.23,1.14,2,1.01,2.12-5.23,2.3-11.36-.2-15.63-3.45s-7.15-6.89-9.33-11.57c-2.37-5.08-3.61-11.99.03-16.76.14-.09,1.63,1.28,1.81,1.49.59.65,1.24,1.83,1.86,2.33.69.57,1.8-.3,1.32-1.16-.34-.61-1.42-1.91-1.92-2.45-.23-.25-1.69-1.46-1.68-1.59,1.36-.98,2.79-1.79,4.35-2.42.64,1.44,1.09,2.88,1.42,4.42.15.69.07,2.79,1.29,2.46,1.05-.29.65-1.81.51-2.64-.28-1.62-.83-3.24-1.48-4.75,1.19-.32,2.1-.3,3.01-1.26,2.36-2.48,3.85-5.58,7.19-7.27,2.11-1.07,2.77-.23,3.48,1.81.9,2.58.56,4.79.94,7.26.27,1.74,1.62,1.99,2.84,2.92l-3.03,2.38Z"/><path class="cls-2" d="M100.63,108.54c.36.31,1.75,2.08,1.97,2.51.33.66.12,1.7-.46,2.17-.93.74-2.59.17-3.68.19-1.19.78-1.98,1.55-1.77,3.05.22,1.62,1.22,2.3,2.79,2.33.77.01,1.61-.49,2.1.33.8,1.34-1.54,1.5-2.31,1.47-2.29-.08-4.03-1.46-4.34-3.78-.09-.66.06-1.17.01-1.81-2.99-.16-4.93-2.38-4.36-5.39.14-.76.8-2.96,1.92-2.04.79.65.12,1.28-.07,2.02-.4,1.54-.06,2.73,1.48,3.39,1.45.62,2.46,0,3.52-1.04.13-.95.14-2.74.91-3.39.6-.51,1.7-.51,2.31,0Z"/><path class="cls-2" d="M100.85,104.38c-1.32-.22-.45-1.55-.55-2.28-.12-.87-.63-1.52-1.45-1.85-.64-.26-2.32.22-2.07-1.14.2-1.12,2.06-.78,2.82-.46,1.39.57,2.21,1.63,2.43,3.1.12.8,0,2.82-1.18,2.63Z"/><path class="cls-2" d="M110.77,117.02c-1.32-.22-.45-1.55-.55-2.28-.12-.87-.63-1.52-1.45-1.85-.64-.26-2.32.22-2.07-1.14.2-1.12,2.06-.78,2.82-.46,1.39.57,2.21,1.63,2.43,3.1.12.8,0,2.82-1.18,2.63Z"/><path class="cls-2" d="M14.36,76.21c-.65.72-.63,1.86-.89,2.8-.38,1.39-1,2.76-1.75,3.99-.31.5-1.25,1.58-1.4,1.95-.23.56.07,1.19.7,1.08.75-.12,2.1-2.63,2.53-3.31l1.38-3.35,2.16,5.41c-.64,4.36-4.38,8.25-8.86,8.42l-5.07-2.06c.01-.15.14-.15.24-.19,1.59-.62,3.88-1.31,5.16-2.49.56-.52.34-1.35-.38-1.34-.31,0-1.8,1.06-2.25,1.3-1.14.6-2.31.99-3.54,1.34-.81.23-1.78.19-2.39.81v.57c4.56,5.39,4.57,13.75,0,19.14v.57c.2.12.3.29.52.39.79.35,2.24.5,3.19.83,4.82,1.66,7.95,5.35,9.52,10.1.33,1,.45,2.23,1.12,3.04h.57c3.94-2.5,8.25-3.77,12.92-2.73,2.23.5,4.27,1.59,6.22,2.73h.48c.19-.18.37-.26.49-.52.31-.74.43-2.18.73-3.1,1.53-4.57,5.28-8.21,9.88-9.64.84-.26,2.1-.39,2.83-.71.23-.1.32-.27.52-.39v-.57c-4.34-5.6-4.52-13.59,0-19.14v-.57c-.2-.12-.3-.29-.52-.39-1-.44-2.52-.62-3.64-1.04-4.61-1.73-8.16-5.64-9.4-10.41-.22-.86-.18-1.87-.79-2.51h-.57c-4.51,2.11-8.8,3.53-13.8,2.08l-5.34-2.08h-.57ZM30.58,84.06c-1.53.65-3.14,1.4-4.8,1.61-2.67.34-4.98-.54-7.36-1.61l-2.44-5.79c1.61.5,3.13,1.25,4.78,1.63,4.35,1,8.28.15,12.25-1.68l-2.43,5.84ZM45.72,91.15c-1.52.83-3.67,1.41-5.28,2.1-4.31-.7-7.86-4.06-8.52-8.42l2.15-5.47,1.03,2.65c2.11,4.34,6.1,7.8,10.83,8.93,0,.12-.13.16-.22.21ZM27.38,91.93c-1.9,1-3.86,1-5.76,0l-2.39-5.82c-.02-.13,0-.18.14-.14.23.07.59.29.86.38.57.2,1.17.41,1.75.54,2.67.59,5.29.19,7.77-.93l-2.38,5.97ZM11.05,94.1c3.06-1.55,4.8-2.51,6.4-5.75.07-.14.53-1.4.63-1.33l2.25,5.54c-.25,2.07-1.95,3.68-3.98,3.98l-5.54-2.25c0-.13.15-.15.24-.19ZM38.06,94.32l-5.29,2.17c-2.07-.12-3.79-1.84-4.13-3.86l2.27-5.61,1.11,2.19c1.4,2.28,3.59,4.1,6.17,4.89l-.12.21ZM3.8,94.84l-1.08-2.37,5.36,2.29c2.6,3.53,2.6,8.42-.05,11.92l-5.36,2.24c2.45-4.25,2.88-9.49,1.12-14.09ZM45.2,95.04c-1.26,3.49-1.28,7.29-.15,10.82l1.41,3.18-5.4-2.25c-2.63-3.57-2.72-8.45-.1-12.05l5.36-2.25c-.35.86-.81,1.68-1.12,2.56ZM24.97,97.74c-.3-.14-.65-.14-.95,0l-1.53-3.92c1.29.42,2.73.42,4.02,0l-1.53,3.92ZM19.66,96.59c.64-.54,1.07-1.26,1.58-1.91l1.42,3.58-.68.62-3.51-1.42c.34-.36.81-.54,1.19-.86ZM30.41,97.48c-.9.56-2.36.83-3.3,1.4-.28.04-.59-.42-.77-.62l1.42-3.58c.76,1.01,1.5,2.16,2.77,2.59.05.22-.02.15-.12.21ZM11.26,98.48l-.88-2.85,5.46,2.3c1.24,1.58,1.25,4.05-.05,5.6l-5.45,2.25c1-2.31,1.45-4.79.93-7.29ZM38.76,105.64l-.14.14-5.4-2.26c-1.24-1.63-1.3-4.03,0-5.64l5.55-2.25c-1.54,3.09-1.58,6.92,0,10ZM21.53,101.18l-3.64,1.44c.41-1.23.41-2.6,0-3.83l3.64,1.44c-.14.3-.14.65,0,.95ZM31.1,102.62l-3.63-1.44c.12-.34.12-.6,0-.95l3.63-1.44c-.38,1.3-.36,2.53,0,3.83ZM25.21,102.13c-2.28,1.07-3.31-2.68-.92-3.03,1.72-.25,2.56,2.27.92,3.03ZM19.43,104.68c-.13-.11-1.03-.62-.96-.72l3.58-1.42.62.68-1.42,3.61c-.54-.77-1.09-1.54-1.82-2.15ZM29.14,105.01c-.57.52-.92,1.12-1.38,1.72l-1.42-3.58.68-.62,3.51,1.42c-.41.41-.96.66-1.39,1.05ZM26.51,107.4c-1.36-.38-2.66-.38-4.02,0l1.54-3.73c.34.12.6.12.95,0l1.54,3.73ZM16.44,111.49c-1.02-1.41-2.39-2.7-3.94-3.53-.18-.1-1.77-.74-1.69-.84l5.6-2.25c2.01.34,3.72,2.07,3.87,4.11l-2.29,5.61-1.55-3.09ZM37.95,107.31c-.61.31-2.79,1.09-2.92,1.77-.07.38.09.74.47.86.54.17,1.22-.52,1.72-.78.99-.5,2.2-.87,3.3-1.01,1.57.75,3.71,1.27,5.19,2.09.11.06.16,0,.12.21-4.79,1.13-8.79,4.7-10.83,9.12l-.94,2.46-2.16-5.4c.17-1.22.59-2.39,1.18-3.46.32-.58,1.33-1.57.74-2.14-.89-.87-1.69,1.01-2.08,1.57l-.84,1.79-2.21-5.41c.03-2.08,1.86-3.72,3.82-4.11l5.66,2.25c0,.13-.15.15-.24.19ZM14.69,122.05c-1.44-3.6-2.24-5.83-5.36-8.42-2.11-1.75-3.59-2.09-5.94-3.16-.09-.04-.22-.06-.23-.19l5.07-2.06c4.51.22,8.06,4.1,8.81,8.43l-2.21,5.59c-.13.03-.1-.1-.14-.19ZM27.24,114.28c-1.77-.42-3.63-.43-5.4-.02l-2.51.84,2.35-5.69c1.74-1.15,3.9-1.15,5.64,0l2.35,5.74c-.8-.33-1.58-.67-2.43-.87ZM32.83,122.81c-.89-.35-1.73-.83-2.63-1.15-3.9-1.4-8.18-1.3-12.01.24-.72.29-1.41.66-2.11,1l2.29-5.58c3.82-2.55,8.39-2.53,12.23-.04l2.22,5.53Z"/><path class="cls-2" d="M158.13,18.43c1.62,1.05,2.53,2.9,3.42,4.69.63,1.28,1.28,2.6,2.18,3.59,1.81,2,3.51,2.21,5.48,2.46.96.12,1.95.24,3.05.57,3.83,1.15,4.62,2.26,6.33,4.7.23.32.47.67.74,1.05,1.97,2.73,5.3,5.45,9.96,2.88.1-.06.26-.17.44-.3.82-.59,1.54-1.06,2.09-.91.21.06.37.2.46.42.04.35.01.65-.05.98-.25,1.3-.63,2.63-1.13,3.96-2.65,7.07-8.03,12.66-13.72,14.24-1.19.33-2.18.32-3.22.3-.46,0-.93-.01-1.44,0-4.06.19-8.53,1.96-11.4,4.52-.6.53-1.16,1.17-1.7,1.79-.91,1.04-1.85,2.11-3.06,2.79-2.32,1.32-5.09,1.24-6.88-.22-1.57-1.27-2.05-3.3-1.33-5.58.02-.07.05-.14.08-.22.12-.32.29-.69.47-1.09.21-.45.43-.93.61-1.41.37-1,.44-1.69.21-2.17-.16-.33-.46-.56-.92-.71-.5-.16-.99-.22-1.51-.29-.69-.09-1.4-.18-2.17-.51-6.85-2.93-8.42-10.22-6.4-15.59,1.41-3.77,4.48-6.51,8.42-7.54.68-.18,1.39-.21,2.08-.23,1.55-.06,2.88-.12,3.53-1.85l.06-.18c.44-1.35-.05-2.36-.56-3.44-.41-.85-.83-1.74-.81-2.82.01-.67.13-1.3.35-1.89.49-1.3,1.44-2.26,2.62-2.65,1.18-.39,2.51-.17,3.73.62ZM163.05,28.3c-1.34-1.26-2.07-2.78-2.78-4.26-.61-1.26-1.19-2.45-2.11-3.45-.94-1.02-2.1-1.51-3.1-1.32-.8.16-1.43.74-1.77,1.63-.14.36-.22.77-.26,1.22-.07.92.3,1.69.69,2.51.45.94.97,2.01.8,3.44-.07.58-.19,1.09-.35,1.53-.84,2.23-2.8,2.42-4.69,2.6-.96.09-1.94.18-2.84.52-3.05,1.14-5.35,3.4-6.46,6.38-1.73,4.61-.38,10.88,5.52,13.42.59.26,1.31.37,2.01.47,1.61.25,3.43.52,3.71,2.78.09.71-.03,1.45-.38,2.39-.15.41-.33.81-.51,1.22-.18.4-.36.81-.52,1.23-.27.72-.4,1.32-.41,1.88-.02.93.37,1.71,1.12,2.25,1.05.76,2.73.97,4.07.5,1.54-.54,2.47-1.61,3.46-2.75.36-.42.73-.84,1.13-1.24,2.97-3,7.23-5.05,11.68-5.63.84-.11,1.68-.1,2.5-.09,1.16,0,2.25.02,3.32-.27,2.37-.64,5.76-2.88,7.43-4.58,2.07-2.1,3.78-4.98,5.21-8.8.27-.72.53-1.47.79-2.28-3.34,1.69-6.3,2.24-9.8-.48-1.23-.95-2.03-2.15-2.81-3.31-1-1.5-1.95-2.91-3.75-3.74-1.5-.69-3.02-.94-4.5-1.18-2.28-.37-4.43-.73-6.39-2.58Z"/><path class="cls-2" d="M152.22,44.48c1.3.45,2.38,1.63,1.86,3.24l-.05.14c-.59,1.58-2.31,2.02-3.7,1.62-1.27-.36-2.41-1.43-2.1-3.02.03-.18.08-.35.14-.5.62-1.64,2.4-2,3.85-1.49ZM152.55,47.3c.08-.21.06-.45-.05-.71-.24-.57-.91-.76-1.41-.74-.59.01-1.07.29-1.23.7-.06.16-.07.34-.04.54.12.76.83.91,1.13.95.72.07,1.42-.25,1.6-.73Z"/><path class="cls-2" d="M156.04,40.49c-.1.09-.17.19-.22.31l-.03.12c-.14.66.54.89,1.03,1.07.26.09.52.18.67.31.31.27.41.69.26,1.08-.02.05-.04.1-.07.15-.23.4-.69.48-1.14.56-.42.07-.86.15-1.01.57h0c-.14.44.04.68.16.79.49.44,1.68.19,2.09.01.69-.3,1.2-.83,1.45-1.5.48-1.29-.11-2.71-1.39-3.31-.6-.28-1.4-.54-1.81-.16Z"/><path class="cls-2" d="M152.72,36.34c1.3.45,2.38,1.63,1.86,3.24l-.05.14c-.59,1.58-2.31,2.02-3.7,1.62-1.27-.36-2.41-1.43-2.1-3.02.03-.18.08-.35.14-.5.62-1.64,2.4-2,3.85-1.49ZM153.05,39.16c.08-.21.06-.45-.05-.71-.24-.57-.91-.76-1.41-.74-.59.01-1.07.29-1.23.7-.06.16-.07.34-.04.54.12.76.83.91,1.13.95.72.07,1.42-.25,1.6-.73Z"/><path class="cls-2" d="M191.61,209.02l8.82-14.64,17.23-1.23c.33-.02.62-.23.75-.54.13-.31.07-.66-.15-.91l-11.31-12.94,3.66-16.45c.07-.32-.04-.65-.29-.86-.25-.21-.6-.26-.9-.14l-15.34,6.42-14.59-8.73c-.28-.17-.63-.16-.92.01-.28.18-.44.5-.4.82l1.64,16.59-13.31,11.03c-.25.21-.37.54-.3.86.07.32.31.57.63.66.19.05,4.67,1.25,6.27,1.61,2.27.52,4.57,1.01,6.87,1.5,1.18.25,2.37.51,3.55.76l6.53,16.04c.12.31.41.52.74.54.19.02.37-.03.52-.12.12-.07.22-.17.29-.3ZM199.17,193.09l-8.16,13.53-6.04-14.85c-.11-.27-.34-.46-.62-.53-1.33-.29-2.67-.58-4-.86-2.29-.49-4.57-.98-6.84-1.49-.96-.22-3.07-.77-4.56-1.16l12.36-10.24c.22-.19.34-.47.31-.76l-1.52-15.32,13.48,8.06c.24.14.53.16.79.06l14.19-5.94-3.39,15.23c-.06.27.01.56.19.77l10.44,11.95-15.93,1.14c-.14,0-.28.05-.39.12s-.22.17-.29.3ZM180.75,176.81h0s0,0,0,0Z"/><path class="cls-2" d="M105.32,209c.55-.75,1.11-1.73,1.5-2.57,2.02-4.39-2.1-4.95-4.85-6.74-1.73-1.13-.85-3.46,1.15-3.14,4.03,1.87,7.98,4.66,12.01,6.44s6.89-3.49,3.35-5.83c-1.17-.78-3.17-1.44-4.17-2.27-.26-.22-.63-1.23-.49-1.51l1.04-1.93,1.46.78,1.57-2.92,8.8,4.72c5.54,2.53,13.4.3,16.71-4.85.39-.61.68-1.35,1.06-1.97l.76-2.49c1.63-7.74-3.73-15.23-11.7-16.05-1.59-.16-3.17.17-4.75-.23-5.09-1.3-5.03-4.79-8.38-7.62-9.89-8.36-24.74.62-21.41,13.36.83,3.18,2.9,6.32,5.73,8.06l8.72,4.68-1.57,2.92,1.46.78-.81,1.5c-.48.9-.42,2.33.08,3.22.78,1.41,3.47,2.23,4.86,3.14,2.05,1.34.64,3.94-1.54,3.04-4.03-1.77-8.09-4.82-12.1-6.48-1.96-.81-4.13.72-4.4,2.76-.43,3.26,3.51,3.96,5.56,5.38,1.91,1.32-.73,3.56-1.02,5.09l1.37.74ZM114.82,187.82l.2-.04c.42.26,1.13.42,1.34.87l-.71,1.33-1.54-.83.71-1.33ZM105.58,180.82c-4.67-2.9-6.78-9.96-4.42-14.93,2.94-6.2,10.81-8.54,16.65-4.95,4.65,2.86,4.26,7.63,10.74,9.14,1.83.43,3.53.03,5.34.3,8.66,1.27,12.88,11.38,7.7,18.42-2.93,3.98-9.5,5.78-14.05,3.78l-21.97-11.76Z"/><path class="cls-2" d="M127.16,186.04c-.1.18.16.76.35.9.53.4,2.26,1.3,2.91,1.58.29.12.96.16,1.11-.13l1.68-3.13,3.13,1.68c.25.13.78-.22.95-.44.41-.56,1.14-1.98,1.44-2.65.14-.31.35-1.08-.03-1.29l-3.13-1.68,1.68-3.13c.13-.25-.22-.78-.44-.95-.56-.41-1.98-1.14-2.65-1.44-.31-.14-1.08-.35-1.29.03l-1.68,3.13-3.13-1.68c-.18-.1-.76.16-.9.35-.4.53-1.3,2.26-1.58,2.91-.12.29-.17.96.13,1.11l3.13,1.68-1.68,3.13ZM130.79,182.79c.06-.11-.15-.8-.26-.86l-3.13-1.68.78-1.46,3.13,1.68c.11.06.8-.15.86-.26l1.68-3.13,1.46.78-1.68,3.13c-.09.17.09.77.26.86l3.13,1.68-.78,1.46-3.13-1.68c-.11-.06-.8.15-.86.26l-1.68,3.13-1.46-.78,1.68-3.13Z"/><path class="cls-2" d="M115.81,163.63c-4.06-2.49-7.61,4.4-2.63,6.09,3.39,1.15,6.01-4.01,2.63-6.09ZM112.41,166.53c0-1.58,1.91-2.31,2.93-1.1.76.89.32,2.37-.81,2.68-1.01.28-2.12-.51-2.12-1.58Z"/><path class="cls-2" d="M117.72,170.43c-3.93-1.15-5.97,4.68-2.21,6.28,4.24,1.8,6.74-4.95,2.21-6.28ZM117.27,172.05c2.39.87.85,3.99-1.16,3.11-1.88-.83-.68-3.78,1.16-3.11Z"/><path class="cls-2" d="M106.08,175.99c.96,4.45,7.81,2.68,6.46-1.69-1.24-4.01-7.34-2.41-6.46,1.69ZM109.69,173.64c2.34.7,1.2,3.96-.9,3.23s-.84-3.75.9-3.23Z"/><path class="cls-2" d="M108.13,165.17c-3.9-2.1-7.06,4.15-2.93,6.01,3.84,1.73,6.69-3.98,2.93-6.01ZM106.97,166.52c2.48.87.9,4.02-1.07,3.16s-.68-3.77,1.07-3.16Z"/><path class="cls-2" d="M51.88,39.51c.52-.59.03-1.64-.75-1.5-.57.1-2.56,1.58-2.71,1.55-.51-1.06-1.46-1.79-2.67-1.75s-2.2.99-3.21,1.5l-3.13-3.12,11.97-7.25c1.53-.93,1.93-3.38,1-4.86l-11.63-19.21c-1.18-1.87-3.56-2.41-5.34-1.03-.18-.45-.13-.93-.34-1.39-1.75-3.83-6.98-3.01-7.42,1.24-.17,1.64-.04,3.34-.25,4.99L6.64,21.28c-1.42,1.33-1.58,2.98-.71,4.68l11.64,19.21c.87,1.51,3.25,2.29,4.77,1.37l11.97-7.25,1.31,4.22c-.92.66-2.24,1.13-2.82,2.15s-.39,2.23.31,3.17c-.04.15-2.28,1.23-2.63,1.69-.48.63.22,1.55.98,1.36l20.41-12.36ZM33.53,3.36c.18.59-.4,3.81-.51,4.66-.24,1.71-.55,3.41-.74,5.12l-.18.19-3.12-.3.46-9.59c.11-.45.32-.88.68-1.17,1.24-1,2.94-.44,3.41,1.09ZM27,17.98c-2.17,1.54-3.52,3.71-2.77,6.41.48,1.74,2.02,4.02,3.43,5.16,1.3,1.05,1.48-.58,1.93-1.29.98-1.53,2.87-1.84,4.17-3.06,1.46-1.39,1.61-3.65.57-5.34-.21-.34-1.04-1.09-1.07-1.36l1.74-12.32c1.08-.57,2.12-1.8,3.42-1.17.16.08.67.51.74.62l8.7,14.37-23.67,14.34c-.24.15-.45.78-.32,1.08s.72.73,1,.56l23.79-14.4.18.04,2.09,3.45s.18.54.2.62c.16.82-.35,1.56-1.02,1.98l-28.37,17.18c-.68.36-1.46.44-2.1-.02-.08-.06-.44-.37-.47-.42l-2.14-3.53.04-.18,2.33-1.41c.29-.17.17-.89-.03-1.15s-.86-.36-1.1-.21l-2.21,1.34-8.7-14.37c-.04-.06-.18-.64-.2-.75-.05-.35.18-1.24.48-1.42l19.7-11.93-.32,7.17ZM30.82,18c-.68-.03-1.37-.15-2.04-.23l.14-2.9.26-.06,2.78.32-.34,2.81c-.09.16-.61.08-.8.07ZM33.25,22.38c-.13,1.92-2.01,2.26-3.32,3.14-.74.5-1.38,1.14-1.89,1.87-1.79-1.91-3.33-4.72-1.19-6.97.36-.38.76-.74,1.24-.94l3.84.35c.74.32,1.37,1.76,1.31,2.55ZM35.82,38.38l2.04-1.25,3.1,3.15-3.75,2.27-1.39-4.17ZM34.61,47.92c-.64-.89-.55-1.32.31-1.94,3.18-2.27,7.09-4.04,10.36-6.26.83-.38,1.26-.02,1.64.74l-12.31,7.45Z"/><path class="cls-2" d="M21.21,36.17c.86-.58,1.88.69,1.1,1.35-1.08.91-2.07-.69-1.1-1.35Z"/><path class="cls-2" d="M59.84,170.73c1.09,2.66,3.67,4.27,6.52,3.6,6-1.4,8.94-10.29,5.03-15.05l-20.94-21.36c-1.17-1-2.75-.67-3.43.72l-13.71,24.9c-.32.41-.42,1.71-.07,2.06l16.89,17.22c-3.7,2.28-5.68,7.8-4.23,11.9,1.1,3.11,3.95,4.88,7.18,3.9,5.49-1.66,8.25-9.99,4.77-14.61l-17.19-17.52-.16-.33,11.15-20.17,12.19,12.43c-3.75,2.54-5.73,8.07-3.99,12.31ZM49.52,139.48l20.21,20.61c4.22,3.68-.24,14.22-5.75,12.42-4.76-1.56-3.13-9.24-.05-11.9.53-.46,1.87-.99,2.15-1.3.19-.22.24-.65.11-.91l-14.24-14.6c-.34-.37-.95-.28-1.25.07l-11.89,21.53c-.21.43-.53.83-.31,1.32l17.84,18.27c2.63,3.43.9,9.22-2.6,11.38-1.19.74-3.08,1.07-4.3.21-3.87-2.74-2.26-9.1.94-11.73.79-.65,2.45-.9,2.01-2.12l-17.6-18.1,14.17-25.47c.19.01.39.21.54.33Z"/></pattern></defs><rect class="cls-3" width="2292" height="1423"/></svg>