<?xml version="1.0" encoding="UTF-8"?><svg xmlns="http://www.w3.org/2000/svg" xmlns:xlink="http://www.w3.org/1999/xlink" viewBox="0 0 2741 1617"><defs><style>.cls-1{fill:none;}.cls-2{fill:#9966cb;}.cls-3{fill:url(#New_Pattern_2);}.cls-4{fill:url(#New_Pattern_3);}.cls-5{fill:#fff;}</style><pattern id="New_Pattern_2" x="0" y="0" width="285.8" height="270.74" patternTransform="translate(371 283)" patternUnits="userSpaceOnUse" viewBox="0 0 285.8 270.74"><rect class="cls-1" width="285.8" height="270.74"/><path class="cls-2" d="M148.33,23.03c-1.65-.34-2.93.18-4.41-1.15-2.17-1.95-.53-5.16-3.84-7.54-1.05-.75-4.11-2.01-4.72-.23l-3.21,11.98c-1.27-.14-2.56-.53-3.87-.56-3.88-.07-8.11,1.86-10.75,4.66-.5.53-.95,1.29-1.43,1.83-3.75,4.14-8.4,8.48-11.81,12.78-2.17,2.73-3.19,6.43-2.82,9.9.14,1.27.63,2.49.85,3.7l-11.78,4.19c-1.06.51-.72,1.66-.44,2.58.53,1.71,1.96,3.21,3.64,3.82,2.13.78,4.29-.16,5.83,2.1.86,1.27.6,2.32.99,3.66.64,2.19,2.87,4.12,5.16,4.34.39.04.86-.07,1.26-.05l.53-.78,3.24-12.07c.14-.11,2.11.4,2.52.44,3.9.44,7.92-.76,10.81-3.43,5.05-4.67,9.47-10.85,14.47-15.66,2.21-2.75,3.26-6.45,2.88-9.97-.14-1.27-.63-2.49-.85-3.7l11.78-4.19.73-.72-.04-1.01c-.38-2.33-2.43-4.46-4.74-4.93ZM103.6,60.86l-3.95,3.21c-.56.93.4,1.86,1.34,1.36l3.71-3.01.36-.06,1.6,1.62-2.81,4.21c-.3,1.11.86,1.79,1.69.95l2.8-4.1.52.26-3.15,11.77c-1.53-.26-2.92-1.45-3.3-2.98-.53-2.13-.18-3.36-2.05-5.08s-3.06-1.27-5.23-1.63c-1.53-.25-2.78-1.5-3.22-2.96l.28-.31c3.53-.96,7.16-2.85,10.65-3.77.2-.05.41-.13.62-.07l.15.59ZM115.24,39.41c1.1,2.26,3.27,2.71,3.03,5.9-.22,2.96-3.38,3.91-3.08,7.97.32,4.3,5.14,5.31,3.37,9.9-.36.93-.6,1.27-1.6,1.44-7.72,1.31-13.81-4.77-13.56-12.39.1-2.95,1.54-5.17,3.37-7.33,2.42-2.86,5.24-5.54,7.75-8.33.05.93.31,2,.72,2.84ZM124.54,32.89c.91,2.23,3.15,2.93,3.07,5.76s-3.12,3.96-2.97,7.68c.17,4.16,4.86,5.19,3.25,9.46-.52,1.38-3.82,4.82-5.05,5.9-.25.22-2.01,1.72-2.21,1.54.47-1.84.25-3.81-.75-5.44-.87-1.42-2.4-2.23-2.66-4.09-.54-3.77,2.55-4.54,2.95-7.96.37-3.13-.87-4.14-2.56-6.27-2.42-3.05-.68-5.78,1.62-8.07,1.46-1.46,3.15-2.73,5.17-3.3-.48,1.6-.51,3.23.13,4.79ZM129.53,51.3c-1.03-2.19-3.02-2.55-2.89-5.54.12-2.77,3.05-3.78,2.94-7.46-.13-3.92-3.73-4.76-3.56-8.17.03-.54.55-2.38,1.1-2.51,1.55-.36,4.3.34,5.75,1.01,6.17,2.86,8.5,10.63,5.05,16.48-1.08,1.82-5.76,7.07-7.42,8.45-.12.1-.15.25-.37.2.04-.86-.22-1.69-.58-2.46ZM143.12,28.43c.77-.89,0-2-1.09-1.61l-3.98,3.14-.17-.02c-.13-.59-1.31-1.11-1.53-1.43-.09-.13-.1-.24-.01-.38l2.71-3.94c.41-1.03-.67-1.86-1.53-1.17l-2.82,4.14-.72-.26,3.24-11.68c.72.14,1.47.45,2.03.94,2.11,1.83.79,4.85,3.34,7.17,1.83,1.67,3.1,1.24,5.21,1.59,1.49.25,2.81,1.54,3.22,2.96l-.03.17-11.27,4.06c-.26.05-.48-.51-.39-.67l3.78-3.01Z"/><path class="cls-2" d="M203.54,136.57c-.8.73-1.02,2.95-1,4.01-.94.05-2.76.29-3.27,1.2s-.35,2.57-.06,3.54c-2.18.34-4.44.65-3.16,3.42.25.53.61,1.08,1.08,1.44-.49.67-1.48,1.07-2.05,1.77-1.16,1.43-.46,3.03.87,4.02-.77.9-2.3,2.41-2.27,3.68.03.99,2.34,2.48,3.24,2.72-.91,1.36-1.44,2.6-1.15,4.25.15.84.4,1.68,1.29,1.92,4.18,1.14,11.13-.82,14.74-3.06,2.62-1.62,5.12-5.33,8.45-3.25,1.81,1.13,2,3.2,2.87,4.96,2.01,4.04,5.73,7.76,9.78,9.78.94.47,2.3,1.27,3.22.68,1.65-1.06,2.31-3.15,1.96-5.02.1-.21,3.63.38,4.31-1.06.38-.82.09-3.1-.41-3.91.17-.36,2.69-.69,2.94-2.42.11-.76-.68-2.51-1.11-3.18l.03-.22c.89-.35,1.78-.71,2.42-1.46.99.38,2.8,1.08,3.82.65.96-.41,1.8-2.03,2.15-2.97,1.04.43,2.09,1.06,3.26.95,1.46-.14,1.46-2.7,1.36-3.82,1.02.13,3.22.06,3.78-.89s.6-2.07.36-3.09c.96-.16,3.38-.76,3.88-1.61.58-.97-.48-3.31-1.09-4.15,1.26-.45,2.46-1.18,3.12-2.39,1.26-2.3.59-2.75-1.51-3.81-1.71-.86-3.97-1.75-5.8-2.31-3.75-1.16-9.68-.58-10.24-5.63-.28-2.52,1.33-3.9,2.47-5.89,1.57-2.76,3.02-5.73,3.76-8.84.14-.59.43-1.44.06-1.95-.95-1.33-4.41-1.61-5.63-.4l-.2-.09c-.29-1.06-1.12-3.31-2.32-3.55-.87-.18-3.18.99-3.64,1.81-.44-.42-.67-.89-1.19-1.27-2.16-1.6-3.23-.02-4.78,1.46-.55-.81-1.48-1.58-2.43-1.84-1.62-.44-2.38,2.17-2.67,3.38-1.13-.55-3.1-1.25-4.12-.26-.86.84-.98,1.73-1.18,2.84-.69-.45-3.52-.29-4.05.21-.98.95-.48,3.11-.31,4.3-1.84.11-3.85.95-4.7,2.72-.48.99.86,2.65,1.47,3.46,2.78,3.7,6.37,6.26,10.74,7.82,2.47.88,5.63.47,6.76,3.39.06.17.25.92.23,1.05-.05.35-1.62.92-2.05,1.16-1.92,1.07-3.83,2.31-5.54,3.69-2.08,1.67-3.83,4.31-6.75,4.08-4.49-.35-4.65-4.69-6.12-7.97-.83-1.86-1.99-3.98-3.18-5.63-1.37-1.91-2.2-3.39-4.46-1.31-1,.92-1.47,2.11-1.75,3.41-.8-.52-3.45-1.21-4.22-.51ZM198.95,147.2c.8-.02,2.94.69,2.9-.66,0-.33-.86-1.32-1.01-1.98-.48-2.01.28-2.33,2.13-2.04.61.09,1.4.66,1.97.11.71-.69-.12-1.23-.4-1.82-.31-.66-.3-2.12.19-2.65.6-.66,3.59,1.63,4.38,1.06.75-.54.28-1.4.45-2.12.24-1,.76-1.98,1.67-2.49.3-.05,1.2,1.31,1.4,1.6.74,1.05,1.53,2.42,2.12,3.57,2.26,4.44,2.47,10.73,9,10.63,3.44-.06,5.01-2.6,7.46-4.55,2.31-1.84,5.02-3.52,7.77-4.56.77.81.71,2.28.32,3.25-.27.68-1.38,1.81-.12,2.29.92.35,2.98-.19,3.96.75-.14.8-.44,1.9-1.11,2.41-.28.21-.85.25-1.05.49-1.57,1.9,3.04,1.58,3.27,3.06.06.42-.97,1.72-1.36,1.99-.53.37-1.78.42-1.43,1.5.29.91,2.95,1.09,3.27,2.31-.06.33-1.58.88-1.95,1.01-.81.28-1.6,0-1.83,1.07-.15.7.69.91,1.07,1.27.35.34,1.27,2.05.98,2.45-.81,1.12-3.5.36-3.9,1.31-.36.84.63,1.08,1.02,1.53.35.4.86,2.28.56,2.7-.9.59-3.78-.38-4.31-.03-.81.54.04,2.04,0,3.03s-.28,1.7-1.02,2.35c-4.12-1.5-7.87-4.76-10.07-8.54-1.87-3.22-1.78-6.92-6.43-7.56-3.12-.43-4.32,1.4-6.48,3.04-3.41,2.58-7.7,4.01-11.98,4.02-.45,0-2.28-.02-2.55-.16-.87-.43-.03-2.55.34-3.13.4-.64,1.5-1.12,1.22-2.02-.21-.67-.73-.49-1.16-.67-.93-.38-2.01-.75-2.65-1.56.1-.61,1.18-1.84,1.77-2.05.55-.2,1.24.18,1.58-.56.58-1.25-2.89-2.1-2.67-3.42.07-.45,1.46-1.43,1.94-1.55.65-.17,1.53.15,1.78-.83.11-.81-3.16-2.98-2.26-3.66.05-.04,1.06-.17,1.23-.17ZM227.51,118.68c.49.3.73,1.05,1.51.63s.29-1.25.28-1.92c-.02-1.91.32-2.74,2.36-1.9.82.34,1.54,1.65,2.31,1.18s.43-3.29,1.26-4.09c1.26.27,1.88,2.77,2.81,2.96,1.07.22,1.06-1.35,1.54-2.1.15-.24,1.18-1.18,1.38-1.15.74.12,1.25.89,1.58,1.49.38.68.21,1.29,1.09,1.59,1.05.35.94-.92,1.22-1.47s1.95-1.73,2.45-1.24c.9.88.72,3.57,1.48,3.95s1.62-.7,2.29-1.03c.89-.43,2.01-.52,2.87.03-.49,2.09-1.18,4.18-2.11,6.12-1.96,4.09-6.04,7.45-3.48,12.26,1.92,3.62,5.14,3.31,8.55,4.12,3.04.72,6.03,1.84,8.75,3.38-.3,1.13-1.15,1.83-2.22,2.2-.78.26-2.36.06-2.06,1.39.13.6,2.22,2.77,1.84,3.53-.58.49-2.03.95-2.75.67-.46-.18-.74-.75-1.41-.43-1.46.71,1.2,3.01.14,4.31-.37.45-2.04.36-2.55.16-.6-.23-.95-.85-1.71-.35s.15,2.03.2,2.88c.03.43-.08.83-.03,1.26-1.31.4-2.91-2.03-3.96-1.71-.95.29-.4,1.18-.51,1.81-.08.48-.82,2.16-1.31,2.2-2.16-.06-3.2-1.7-4.85-2.73.52-.9,1.59-1.94,1.7-3s-1.45-2.58-2.44-2.82c.71-.9,1.84-3.54.88-4.49-.76-.75-2.54-1.2-3.61-1.21.63-1.57.55-4.07-.73-5.31-.29-.28-.77-.46-.92-.65-.1-.13-.43-1.49-.64-1.89-1.49-2.82-3.36-2.62-5.97-3.33-2.98-.81-5.34-1.9-7.76-3.84-1.91-1.53-3.43-3.35-4.77-5.39.31-1.04,1.61-1.65,2.63-1.68.67-.02,1.91.46,2.32-.14.56-.83-.06-1.28-.25-2.05-.1-.41-.49-2.33-.18-2.56,1.01-.13,1.88-.2,2.8.37Z"/><path class="cls-2" d="M212.87,156.97c5.22-2.05,11.82,0,15.43,4.2.53.62.38,1.03-.22,1.57-.72.29-2.76-1.85-3.47-2.35-3.79-2.65-8.07-3.42-12.25-1.19-.83.44-1.84,1.72-2.73.98-1.33-1.11,2.48-2.91,3.25-3.21Z"/><path class="cls-2" d="M230.8,153.7c-.5.26-2.7.68-3.36.78-5.01.75-9.8-.6-12.99-4.74-.55-.72-2.52-3.37-.64-3.6.85-.1,1.35,1.54,1.84,2.22,2.78,3.89,7.2,5.08,11.75,4.32.66-.11,2.85-.82,3.21-.76.91.14,1.09,1.32.19,1.78Z"/><path class="cls-2" d="M252.16,141.57c.23.64-.35,1.39-1.11,1.2-.7-.18-2.97-2.26-3.57-2.89-2.89-3-4.57-7.03-3.88-11.24.16-.99,1-5.03,2.47-4.28,1.11.56-.08,2.12-.36,2.98-1.49,4.63.53,9.13,3.99,12.21.46.41,2.33,1.68,2.45,2.02Z"/><path class="cls-2" d="M242.9,144.32c-.34.13-1.02-.16-1.16-.5-.11-.27-.03-2.28-.08-2.85-.39-3.87-2.42-7.48-5.99-9.26-.83-.41-3.09-.71-2.99-1.75.17-1.63,3.3-.1,4.07.3,4.12,2.18,6.44,6.57,6.73,11.11.05.76.24,2.64-.58,2.95Z"/><path class="cls-2" d="M156.89,165.58c1.27-1.22-1.66-4.13-2.25-5.21.47-.59.72-1.81,1.16-2.33.58-.69,3.72-1.83,4.76-2.36,3.12-1.6,8.83-4.86,9.55-8.55.68-3.47-4.02-5.87-6.65-7-2.05-.88-4.24-1.38-6.32-2.18-.87-2.14-1.55-4.33-2.67-6.37-2.51-4.58-6.11-7.72-10.5-10.41l-.21-.54c-.09-4.6-.7-16.82-8.11-13.86-3.11,1.24-6.07,4.35-8.23,6.86-.79.92-2.56,3.61-3.46,4.01-.61.27-1.75.23-2.43.53-.9-.83-2.95-4.21-4.41-3.48-2.12,1.05,1.61,3.24,2.01,4.26-2.28.97-4.6,2.12-6.35,3.9-.99-.44-4.09-2.31-4.23-.09-.08,1.32,1.68,1.19,2.4,1.88-4.12,5.29-3.97,12.87-2.09,19.01,2.87,9.38,9.6,17.96,18.03,22.98,5.54,3.3,12.82,5.23,18.96,2.49.48.86,0,2.85,1.46,2.79,2.03-.09.83-2.99.72-4.14,2.12-1.31,3.82-3.24,5.3-5.24.95.67,2,4.58,3.58,3.06ZM141.22,127.84c-.62.49.21,2.29,1.43,1.72.87-.4,4.19-3.46,4.47-3.42l2.57,2.57-8.23,6.45c-.79.62.63,2.44,1.42,1.82l8.23-6.45,1.88,3.1c-.03.28-3.79,2.79-4.38,3.53-.89,1.11.73,2.27,1.33,1.8l3.91-3.07c.8,1.81.69,3.59,2.8,4.46,2.97,1.23,5.9,1.49,8.83,3.41,2.33,1.53,3.2,2.6,1.2,4.92-3.17,3.69-7.52,4.56-11.34,6.8-1.49.87-1.74,1.98-2.51,3.39-1.69-1.27-3.56-2.48-5.51-3.32-.97-.42-2.8-1.37-3.47-.18-.83,1.49,2.76,2.36,3.76,2.88,1.43.74,2.75,1.69,4.05,2.63-1.26,1.76-2.72,3.31-4.37,4.71-.18-.02-1.24-2.23-1.49-2.59-.53-.8-1.83-2.55-2.49-3.16-.92-.86-2.36.26-1.86,1.3.45.93,1.72,2.11,2.36,3.06.2.3,1.47,2.58,1.31,2.74-6.76,2.98-14.68-.26-20.2-4.46s-9.24-8.91-12.06-14.96c-3.07-6.56-4.67-15.5.04-21.66.19-.12,2.1,1.66,2.35,1.92.77.84,1.61,2.36,2.41,3.02.9.73,2.33-.39,1.71-1.5-.44-.78-1.83-2.46-2.48-3.17-.3-.33-2.19-1.88-2.17-2.06,1.75-1.27,3.61-2.32,5.62-3.12.83,1.86,1.41,3.72,1.83,5.72.19.9.09,3.6,1.67,3.17,1.36-.37.84-2.34.65-3.41-.37-2.09-1.07-4.19-1.91-6.14,1.54-.42,2.71-.39,3.9-1.63,3.06-3.21,4.98-7.21,9.3-9.4,2.73-1.39,3.58-.29,4.49,2.34,1.16,3.34.72,6.19,1.21,9.39.35,2.26,2.1,2.57,3.67,3.78l-3.91,3.07Z"/><path class="cls-2" d="M133.45,140.3c.47.4,2.26,2.69,2.54,3.24.43.85.16,2.2-.6,2.8-1.21.96-3.35.22-4.76.25-1.53,1.01-2.56,2-2.29,3.94.29,2.09,1.58,2.97,3.61,3.01.99.02,2.09-.63,2.71.42,1.03,1.73-1.99,1.93-2.99,1.9-2.95-.1-5.21-1.88-5.61-4.88-.11-.85.08-1.52.02-2.34-3.86-.2-6.37-3.08-5.64-6.97.19-.98,1.04-3.83,2.48-2.64,1.02.84.15,1.66-.1,2.62-.52,2-.08,3.53,1.92,4.38,1.87.8,3.18,0,4.55-1.34.17-1.23.18-3.55,1.18-4.39.78-.65,2.2-.66,2.98,0Z"/><path class="cls-2" d="M133.74,134.93c-1.7-.28-.58-2-.72-2.95-.16-1.12-.82-1.96-1.87-2.39-.83-.33-2.99.28-2.68-1.48.26-1.45,2.66-1,3.65-.59,1.79.74,2.85,2.1,3.15,4.01.16,1.03,0,3.65-1.52,3.4Z"/><path class="cls-2" d="M146.56,151.27c-1.7-.28-.58-2-.72-2.95-.16-1.12-.82-1.96-1.87-2.39-.83-.33-2.99.28-2.68-1.48.26-1.45,2.66-1,3.65-.59,1.79.74,2.85,2.1,3.15,4.01.16,1.03,0,3.65-1.52,3.4Z"/><path class="cls-2" d="M26.45,97.86c-.84.93-.82,2.41-1.15,3.61-.5,1.8-1.29,3.57-2.26,5.16-.4.65-1.62,2.04-1.81,2.52-.29.73.09,1.54.9,1.4.97-.16,2.71-3.39,3.27-4.28l1.79-4.33,2.79,6.99c-.83,5.64-5.66,10.66-11.45,10.89l-6.55-2.66c.02-.19.19-.19.32-.24,2.06-.8,5.01-1.7,6.67-3.22.73-.67.44-1.74-.49-1.74-.4,0-2.32,1.37-2.9,1.68-1.47.77-2.98,1.28-4.58,1.73-1.05.3-2.3.24-3.09,1.05v.74c5.9,6.97,5.9,17.77,0,24.74v.74c.26.15.38.37.67.5,1.02.45,2.89.65,4.12,1.07,6.23,2.14,10.28,6.92,12.31,13.05.43,1.3.58,2.88,1.45,3.93h.74c5.09-3.23,10.66-4.88,16.7-3.53,2.88.64,5.52,2.06,8.04,3.53h.62c.25-.23.48-.33.63-.67.4-.95.55-2.82.95-4,1.98-5.91,6.83-10.61,12.78-12.46,1.09-.34,2.72-.51,3.66-.92.29-.13.42-.35.67-.5v-.74c-5.61-7.23-5.85-17.57,0-24.74v-.74c-.26-.15-.38-.37-.67-.5-1.29-.57-3.26-.8-4.71-1.35-5.96-2.23-10.54-7.29-12.15-13.46-.29-1.11-.23-2.42-1.02-3.24h-.74c-5.83,2.73-11.38,4.56-17.84,2.69l-6.9-2.69h-.74ZM47.43,108.01c-1.97.84-4.06,1.81-6.21,2.08-3.45.44-6.44-.7-9.52-2.08l-3.15-7.49c2.08.65,4.05,1.61,6.19,2.1,5.62,1.29,10.71.2,15.84-2.17l-3.15,7.55ZM66.99,117.18c-1.96,1.07-4.75,1.82-6.83,2.71-5.57-.9-10.16-5.25-11.01-10.88l2.78-7.07,1.34,3.42c2.73,5.61,7.88,10.08,14,11.55-.01.15-.17.21-.29.27ZM43.29,118.19c-2.46,1.29-4.98,1.29-7.44,0l-3.08-7.53c-.03-.17,0-.24.18-.18.3.09.76.37,1.12.49.73.26,1.51.53,2.27.7,3.45.76,6.84.25,10.04-1.2l-3.08,7.71ZM22.18,120.99c3.96-2,6.2-3.25,8.28-7.43.09-.19.69-1.81.82-1.72l2.91,7.16c-.32,2.67-2.52,4.75-5.15,5.15l-7.16-2.91c.01-.17.19-.19.3-.25ZM57.1,121.27l-6.84,2.81c-2.67-.16-4.9-2.38-5.33-4.99l2.93-7.25,1.43,2.83c1.81,2.95,4.64,5.3,7.97,6.32l-.16.28ZM12.81,121.95l-1.39-3.06,6.93,2.97c3.36,4.57,3.35,10.88-.06,15.41l-6.93,2.9c3.17-5.49,3.73-12.27,1.45-18.21ZM66.32,122.2c-1.63,4.51-1.66,9.42-.19,13.98l1.83,4.11-6.98-2.91c-3.4-4.61-3.51-10.92-.13-15.58l6.93-2.91c-.45,1.12-1.04,2.17-1.45,3.31ZM40.18,125.7c-.39-.19-.84-.19-1.23,0l-1.98-5.07c1.66.54,3.53.54,5.19,0l-1.98,5.07ZM33.32,124.21c.83-.7,1.39-1.62,2.04-2.47l1.83,4.62-.88.8-4.54-1.83c.43-.47,1.05-.7,1.54-1.12ZM47.2,125.36c-1.16.73-3.05,1.07-4.26,1.81-.36.05-.76-.54-1-.8l1.83-4.62c.99,1.31,1.94,2.8,3.59,3.34.06.28-.03.2-.16.28ZM22.46,126.66l-1.14-3.69,7.05,2.97c1.6,2.04,1.61,5.23-.07,7.24l-7.05,2.91c1.29-2.99,1.87-6.19,1.2-9.43ZM58,135.9l-.18.18-6.98-2.92c-1.61-2.11-1.68-5.21,0-7.29l7.17-2.91c-1.99,3.99-2.05,8.95,0,12.93ZM35.73,130.14l-4.7,1.86c.53-1.59.53-3.36,0-4.95l4.7,1.86c-.19.39-.19.84,0,1.23ZM48.1,132l-4.7-1.86c.15-.44.15-.78,0-1.22l4.7-1.86c-.49,1.68-.47,3.27,0,4.95ZM40.48,131.37c-2.95,1.38-4.28-3.47-1.19-3.92,2.23-.33,3.31,2.93,1.19,3.92ZM33.01,134.66c-.17-.14-1.33-.8-1.24-.92l4.62-1.83.8.88-1.83,4.66c-.7-1-1.4-1.99-2.35-2.78ZM45.56,135.09c-.74.67-1.19,1.45-1.79,2.23l-1.83-4.62.88-.8,4.54,1.83c-.53.53-1.24.85-1.8,1.36ZM42.16,138.19c-1.76-.49-3.44-.48-5.2,0l1.99-4.82c.44.15.78.15,1.22,0l1.99,4.82ZM29.15,143.47c-1.32-1.83-3.09-3.49-5.09-4.56-.23-.12-2.29-.95-2.19-1.09l7.23-2.91c2.6.44,4.8,2.67,5.01,5.31l-2.97,7.25-2-4ZM56.95,138.07c-.79.4-3.61,1.41-3.78,2.29-.09.49.12.96.61,1.12.7.22,1.58-.68,2.23-1,1.28-.65,2.85-1.12,4.27-1.3,2.03.97,4.79,1.64,6.71,2.7.14.08.21,0,.16.28-6.19,1.46-11.36,6.08-14,11.79l-1.21,3.18-2.79-6.99c.22-1.57.77-3.09,1.53-4.48.41-.75,1.71-2.02.95-2.77-1.15-1.12-2.18,1.3-2.69,2.03l-1.09,2.31-2.86-6.99c.04-2.69,2.41-4.81,4.94-5.32l7.31,2.91c-.01.17-.19.19-.3.25ZM26.89,157.12c-1.86-4.65-2.9-7.54-6.93-10.88-2.73-2.26-4.64-2.7-7.67-4.08-.12-.06-.29-.08-.3-.25l6.55-2.66c5.83.28,10.42,5.29,11.39,10.89l-2.85,7.23c-.17.04-.14-.13-.18-.25ZM43.11,147.08c-2.29-.55-4.69-.55-6.98-.02l-3.24,1.09,3.04-7.36c2.25-1.48,5.04-1.48,7.29,0l3.03,7.42c-1.03-.42-2.05-.87-3.14-1.13ZM50.33,158.11c-1.15-.46-2.23-1.07-3.4-1.49-5.04-1.81-10.57-1.69-15.52.32-.93.38-1.82.86-2.73,1.29l2.96-7.21c4.94-3.3,10.85-3.27,15.81-.05l2.88,7.14Z"/><path class="cls-2" d="M203.9,26.41c2.09,1.35,3.27,3.75,4.42,6.06.82,1.65,1.66,3.36,2.82,4.64,2.34,2.58,4.54,2.86,7.09,3.18,1.24.16,2.52.32,3.94.74,4.96,1.49,5.97,2.92,8.18,6.07.29.42.61.87.96,1.35,2.55,3.53,6.85,7.05,12.87,3.72.13-.07.33-.22.57-.39,1.06-.76,1.99-1.37,2.7-1.17.27.07.47.26.6.54.05.45.02.84-.06,1.27-.32,1.68-.81,3.4-1.45,5.13-3.42,9.14-10.39,16.37-17.74,18.41-1.53.43-2.81.41-4.17.39-.6,0-1.21-.02-1.86.01-5.25.24-11.03,2.54-14.74,5.84-.77.69-1.5,1.51-2.19,2.31-1.18,1.34-2.39,2.73-3.95,3.61-3,1.71-6.58,1.6-8.9-.28-2.02-1.64-2.65-4.27-1.71-7.21.03-.09.06-.18.1-.28.15-.41.38-.89.61-1.4.27-.58.56-1.2.79-1.82.48-1.29.57-2.18.27-2.81-.2-.42-.59-.72-1.19-.92-.64-.21-1.28-.29-1.95-.37-.89-.11-1.81-.23-2.81-.65-8.86-3.79-10.88-13.21-8.28-20.15,1.83-4.87,5.79-8.42,10.89-9.74.89-.23,1.8-.27,2.68-.3,2-.08,3.72-.15,4.56-2.39l.08-.24c.57-1.74-.06-3.06-.73-4.45-.53-1.1-1.08-2.25-1.05-3.64.02-.86.17-1.68.45-2.44.63-1.68,1.86-2.92,3.39-3.43,1.53-.51,3.24-.22,4.82.8ZM210.27,39.17c-1.73-1.63-2.68-3.6-3.6-5.5-.79-1.63-1.53-3.17-2.72-4.46-1.22-1.32-2.72-1.95-4.01-1.7-1.04.2-1.85.95-2.28,2.11-.17.47-.29,1-.33,1.57-.1,1.19.38,2.18.89,3.24.59,1.22,1.25,2.6,1.03,4.44-.09.75-.24,1.41-.46,1.98-1.08,2.88-3.62,3.12-6.07,3.36-1.24.12-2.51.24-3.68.67-3.94,1.47-6.91,4.4-8.35,8.25-2.23,5.96-.49,14.06,7.14,17.35.77.33,1.7.47,2.6.61,2.08.32,4.43.68,4.8,3.6.12.92-.04,1.87-.49,3.09-.2.52-.43,1.05-.66,1.58-.23.52-.47,1.05-.67,1.58-.35.93-.52,1.7-.53,2.43-.02,1.2.48,2.21,1.44,2.91,1.36.99,3.53,1.25,5.27.65,1.99-.69,3.19-2.08,4.47-3.56.46-.54.94-1.08,1.46-1.61,3.84-3.88,9.35-6.53,15.1-7.28,1.08-.14,2.17-.13,3.23-.12,1.49.01,2.91.02,4.29-.35,3.07-.82,7.45-3.73,9.61-5.92,2.68-2.72,4.88-6.44,6.73-11.38.35-.94.69-1.91,1.02-2.95-4.32,2.19-8.15,2.89-12.66-.61-1.59-1.23-2.63-2.78-3.63-4.28-1.3-1.94-2.53-3.77-4.84-4.84-1.94-.89-3.91-1.22-5.82-1.53-2.95-.48-5.73-.94-8.27-3.34Z"/><path class="cls-2" d="M196.27,60.08c1.68.58,3.07,2.1,2.41,4.19l-.06.19c-.77,2.05-2.99,2.61-4.78,2.1-1.64-.46-3.12-1.85-2.72-3.9.04-.23.11-.45.18-.65.8-2.12,3.11-2.58,4.97-1.93ZM196.69,63.73c.1-.27.08-.58-.06-.91-.32-.73-1.18-.98-1.83-.96-.76.02-1.39.37-1.58.9-.08.21-.1.44-.06.7.15.98,1.07,1.18,1.46,1.22.93.1,1.84-.32,2.07-.95Z"/><path class="cls-2" d="M201.19,54.92c-.13.11-.22.24-.28.4l-.04.15c-.18.85.69,1.15,1.33,1.38.33.12.68.24.86.4.4.34.53.89.34,1.4-.02.07-.06.13-.09.19-.3.52-.89.62-1.47.72-.54.1-1.11.2-1.31.74h0c-.18.57.05.88.21,1.03.63.57,2.17.25,2.7.02.89-.38,1.56-1.07,1.88-1.94.62-1.66-.15-3.5-1.79-4.28-.78-.37-1.81-.7-2.34-.2Z"/><path class="cls-2" d="M196.91,49.56c1.68.58,3.07,2.1,2.41,4.19l-.06.19c-.77,2.05-2.99,2.61-4.78,2.1-1.64-.46-3.12-1.85-2.72-3.9.04-.23.11-.45.18-.65.8-2.12,3.11-2.58,4.97-1.93ZM197.33,53.2c.1-.27.08-.58-.06-.91-.32-.73-1.18-.98-1.83-.96-.76.02-1.39.37-1.58.9-.08.21-.1.44-.06.7.15.98,1.07,1.18,1.46,1.22.93.1,1.84-.32,2.07-.95Z"/><path class="cls-2" d="M251.06,270.19l11.41-18.93,22.28-1.59c.43-.03.8-.3.96-.7.16-.4.09-.85-.19-1.17l-14.62-16.72,4.74-21.27c.09-.41-.05-.84-.38-1.11-.32-.27-.77-.34-1.16-.18l-19.83,8.3-18.86-11.28c-.37-.22-.81-.21-1.19.02-.36.23-.56.64-.52,1.07l2.12,21.45-17.21,14.26c-.33.27-.47.7-.38,1.11.09.41.4.74.81.85.25.07,6.04,1.61,8.1,2.08,2.94.67,5.91,1.31,8.88,1.94,1.53.33,3.06.65,4.58.98l8.43,20.74c.16.4.53.67.96.7.24.02.48-.04.68-.16.15-.09.28-.22.38-.38ZM260.83,249.6l-10.54,17.5-7.81-19.2c-.14-.35-.44-.6-.81-.68-1.72-.38-3.45-.74-5.18-1.11-2.96-.63-5.91-1.26-8.84-1.93-1.25-.28-3.97-.99-5.9-1.5l15.98-13.24c.29-.24.44-.61.4-.98l-1.96-19.81,17.42,10.42c.31.18.69.21,1.02.07l18.34-7.68-4.39,19.69c-.08.35.01.72.25.99l13.5,15.44-20.6,1.48c-.18.01-.36.07-.51.16s-.28.22-.38.38ZM237.02,228.55h-.01s.01,0,.01,0Z"/><path class="cls-2" d="M139.52,264.99c.71-.96,1.43-2.23,1.94-3.33,2.61-5.68-2.71-6.39-6.27-8.72-2.23-1.46-1.09-4.48,1.48-4.06,5.21,2.41,10.32,6.03,15.53,8.33s8.91-4.51,4.33-7.54c-1.52-1-4.1-1.86-5.39-2.93-.34-.28-.82-1.59-.63-1.95l1.34-2.5,1.89,1.01,2.03-3.77,11.37,6.11c7.16,3.27,17.32.38,21.6-6.27.51-.79.88-1.75,1.37-2.55l.98-3.22c2.1-10-4.82-19.69-15.12-20.74-2.06-.21-4.1.22-6.13-.3-6.58-1.68-6.51-6.2-10.84-9.85-12.79-10.8-31.98.8-27.68,17.27,1.08,4.11,3.75,8.16,7.41,10.42l11.27,6.05-2.03,3.77,1.89,1.01-1.04,1.94c-.63,1.16-.54,3.01.1,4.16,1.01,1.83,4.49,2.89,6.29,4.06,2.65,1.73.83,5.09-1.99,3.92-5.21-2.29-10.45-6.23-15.64-8.38-2.54-1.05-5.34.93-5.69,3.57-.55,4.21,4.54,5.12,7.18,6.95,2.47,1.7-.95,4.61-1.32,6.58l1.78.95ZM151.79,237.62l.26-.05c.55.34,1.46.54,1.73,1.12l-.92,1.72-2-1.07.92-1.72ZM139.85,228.56c-6.03-3.75-8.76-12.87-5.72-19.3,3.79-8.01,13.97-11.04,21.52-6.39,6.01,3.7,5.51,9.87,13.88,11.82,2.37.55,4.57.04,6.91.39,11.19,1.64,16.66,14.72,9.96,23.81-3.79,5.15-12.28,7.47-18.16,4.88l-28.4-15.2Z"/><path class="cls-2" d="M167.75,235.32c-.13.24.21.98.45,1.17.69.52,2.92,1.68,3.77,2.04.37.16,1.24.21,1.44-.16l2.18-4.05,4.05,2.18c.32.17,1.01-.28,1.22-.57.53-.73,1.48-2.57,1.86-3.43.18-.4.46-1.39-.04-1.66l-4.05-2.18,2.18-4.05c.17-.32-.28-1.01-.57-1.22-.73-.53-2.56-1.48-3.43-1.86-.4-.18-1.39-.46-1.66.04l-2.18,4.05-4.05-2.18c-.24-.13-.98.21-1.17.45-.52.69-1.68,2.92-2.04,3.77-.16.37-.21,1.24.16,1.44l4.05,2.18-2.18,4.05ZM172.44,231.12c.08-.14-.19-1.03-.33-1.11l-4.05-2.18,1.01-1.89,4.05,2.18c.14.08,1.03-.19,1.11-.33l2.18-4.05,1.89,1.01-2.18,4.05c-.12.21.12.99.33,1.11l4.05,2.18-1.01,1.89-4.05-2.18c-.14-.08-1.03.19-1.11.33l-2.18,4.05-1.89-1.01,2.18-4.05Z"/><path class="cls-2" d="M153.07,206.34c-5.25-3.21-9.84,5.68-3.4,7.87,4.38,1.48,7.77-5.19,3.4-7.87ZM148.68,210.09c0-2.05,2.46-2.98,3.79-1.42.98,1.15.42,3.06-1.05,3.46-1.3.36-2.74-.66-2.74-2.04Z"/><path class="cls-2" d="M155.54,215.14c-5.08-1.48-7.72,6.05-2.86,8.11,5.47,2.33,8.72-6.4,2.86-8.11ZM154.96,217.24c3.09,1.12,1.1,5.16-1.5,4.02-2.43-1.07-.88-4.88,1.5-4.02Z"/><path class="cls-2" d="M140.49,222.32c1.24,5.75,10.1,3.46,8.35-2.19-1.61-5.18-9.49-3.11-8.35,2.19ZM145.16,219.29c3.02.9,1.55,5.11-1.16,4.17s-1.09-4.84,1.16-4.17Z"/><path class="cls-2" d="M143.15,208.33c-5.04-2.71-9.13,5.36-3.78,7.76,4.97,2.23,8.65-5.15,3.78-7.76ZM141.65,210.08c3.2,1.12,1.17,5.2-1.38,4.08s-.88-4.88,1.38-4.08Z"/><path class="cls-2" d="M60.09,51.08c.68-.76.04-2.12-.97-1.94-.74.13-3.31,2.05-3.5,2-.66-1.37-1.89-2.32-3.45-2.26s-2.84,1.28-4.15,1.94l-4.05-4.03,15.47-9.37c1.98-1.2,2.5-4.37,1.29-6.29l-15.03-24.83c-1.52-2.42-4.6-3.11-6.9-1.33-.23-.58-.17-1.21-.44-1.8-2.26-4.95-9.03-3.89-9.59,1.61-.22,2.12-.05,4.32-.32,6.44L1.61,27.5c-1.83,1.71-2.05,3.86-.91,6.05l15.04,24.83c1.13,1.95,4.21,2.96,6.17,1.77l15.47-9.37,1.69,5.45c-1.2.86-2.89,1.46-3.64,2.78s-.5,2.88.41,4.1c-.05.2-2.94,1.58-3.4,2.18-.62.82.29,2.01,1.27,1.76l26.38-15.98ZM36.37,4.34c.23.76-.51,4.93-.66,6.03-.3,2.21-.71,4.4-.95,6.62l-.23.25-4.03-.39.59-12.4c.14-.58.41-1.13.88-1.52,1.61-1.3,3.8-.56,4.4,1.41ZM27.93,23.24c-2.81,1.99-4.54,4.8-3.58,8.29.62,2.25,2.6,5.2,4.43,6.67,1.68,1.35,1.91-.75,2.49-1.66,1.27-1.98,3.71-2.37,5.38-3.96,1.89-1.79,2.08-4.71.73-6.9-.27-.43-1.35-1.41-1.38-1.76l2.25-15.92c1.39-.74,2.75-2.32,4.42-1.51.2.1.87.65.96.81l11.25,18.57-30.6,18.53c-.31.19-.59,1-.42,1.39s.93.95,1.3.73l30.75-18.62.23.06,2.7,4.46s.23.7.25.81c.2,1.05-.45,2.02-1.32,2.56l-36.67,22.21c-.87.46-1.89.57-2.72-.03-.11-.08-.57-.48-.61-.55l-2.76-4.56.06-.23,3.01-1.82c.37-.22.22-1.16-.04-1.49s-1.11-.47-1.42-.28l-2.86,1.73L2.52,32.19c-.05-.08-.24-.82-.26-.97-.06-.45.24-1.6.62-1.83l25.46-15.42-.41,9.27ZM32.87,23.26c-.87-.04-1.77-.19-2.63-.3l.18-3.75.33-.08,3.6.41-.44,3.63c-.11.2-.79.1-1.03.09ZM36.01,28.94c-.16,2.48-2.59,2.92-4.3,4.06-.96.64-1.78,1.47-2.44,2.41-2.31-2.47-4.31-6.1-1.53-9,.46-.49.98-.96,1.61-1.22l4.97.45c.95.41,1.76,2.28,1.7,3.3ZM39.34,49.61l2.64-1.62,4.01,4.08-4.85,2.94-1.8-5.39ZM37.78,61.94c-.83-1.15-.71-1.71.4-2.5,4.12-2.93,9.17-5.23,13.39-8.09,1.07-.49,1.62-.03,2.12.96l-15.91,9.63Z"/><path class="cls-2" d="M20.45,46.76c1.11-.75,2.43.89,1.42,1.74-1.39,1.18-2.67-.9-1.42-1.74Z"/><path class="cls-2" d="M79.44,223.28c1.41,3.44,4.74,5.52,8.43,4.66,7.75-1.81,11.55-13.3,6.5-19.46l-27.07-27.61c-1.51-1.29-3.56-.87-4.43.93l-17.72,32.18c-.41.53-.54,2.21-.09,2.67l21.83,22.26c-4.78,2.95-7.35,10.08-5.47,15.38,1.42,4.02,5.11,6.31,9.28,5.04,7.09-2.15,10.67-12.91,6.17-18.88l-22.22-22.64-.2-.43,14.41-26.07,15.75,16.06c-4.85,3.28-7.41,10.43-5.16,15.91ZM66.1,182.89l26.12,26.64c5.46,4.76-.32,18.38-7.43,16.05-6.16-2.01-4.05-11.94-.06-15.38.69-.59,2.42-1.28,2.78-1.68.25-.28.31-.84.14-1.18l-18.41-18.87c-.44-.47-1.23-.36-1.61.09l-15.37,27.83c-.27.55-.68,1.07-.4,1.7l23.07,23.61c3.4,4.43,1.17,11.92-3.36,14.71-1.54.95-3.98,1.38-5.56.27-5.01-3.54-2.92-11.76,1.22-15.17,1.01-.84,3.17-1.16,2.6-2.74l-22.75-23.39,18.32-32.93c.25.01.51.27.69.43Z"/></pattern><pattern id="New_Pattern_3" x="0" y="0" width="285.8" height="272.64" patternTransform="translate(343 283) scale(1.01 1)" patternUnits="userSpaceOnUse" viewBox="0 0 285.8 272.64"><rect class="cls-1" width="285.8" height="272.64"/><path class="cls-5" d="M148.33,23.03c-1.65-.34-2.93.18-4.41-1.15-2.17-1.95-.53-5.16-3.84-7.54-1.05-.75-4.11-2.01-4.72-.23l-3.21,11.98c-1.27-.14-2.56-.53-3.87-.56-3.88-.07-8.11,1.86-10.75,4.66-.5.53-.95,1.29-1.43,1.83-3.75,4.14-8.4,8.48-11.81,12.78-2.17,2.73-3.19,6.43-2.82,9.9.14,1.27.63,2.49.85,3.7l-11.78,4.19c-1.06.51-.72,1.66-.44,2.58.53,1.71,1.96,3.21,3.64,3.82,2.13.78,4.29-.16,5.83,2.1.86,1.27.6,2.32.99,3.66.64,2.19,2.87,4.12,5.16,4.34.39.04.86-.07,1.26-.05l.53-.78,3.24-12.07c.14-.11,2.11.4,2.52.44,3.9.44,7.92-.76,10.81-3.43,5.05-4.67,9.47-10.85,14.47-15.66,2.21-2.75,3.26-6.45,2.88-9.97-.14-1.27-.63-2.49-.85-3.7l11.78-4.19.73-.72-.04-1.01c-.38-2.33-2.43-4.46-4.74-4.93ZM103.6,60.86l-3.95,3.21c-.56.93.4,1.86,1.34,1.36l3.71-3.01.36-.06,1.6,1.62-2.81,4.21c-.3,1.11.86,1.79,1.69.95l2.8-4.1.52.26-3.15,11.77c-1.53-.26-2.92-1.45-3.3-2.98-.53-2.13-.18-3.36-2.05-5.08s-3.06-1.27-5.23-1.63c-1.53-.25-2.78-1.5-3.22-2.96l.28-.31c3.53-.96,7.16-2.85,10.65-3.77.2-.05.41-.13.62-.07l.15.59ZM115.24,39.41c1.1,2.26,3.27,2.71,3.03,5.9-.22,2.96-3.38,3.91-3.08,7.97.32,4.3,5.14,5.31,3.37,9.9-.36.93-.6,1.27-1.6,1.44-7.72,1.31-13.81-4.77-13.56-12.39.1-2.95,1.54-5.17,3.37-7.33,2.42-2.86,5.24-5.54,7.75-8.33.05.93.31,2,.72,2.84ZM124.54,32.89c.91,2.23,3.15,2.93,3.07,5.76s-3.12,3.96-2.97,7.68c.17,4.16,4.86,5.19,3.25,9.46-.52,1.38-3.82,4.82-5.05,5.9-.25.22-2.01,1.72-2.21,1.54.47-1.84.25-3.81-.75-5.44-.87-1.42-2.4-2.23-2.66-4.09-.54-3.77,2.55-4.54,2.95-7.96.37-3.13-.87-4.14-2.56-6.27-2.42-3.05-.68-5.78,1.62-8.07,1.46-1.46,3.15-2.73,5.17-3.3-.48,1.6-.51,3.23.13,4.79ZM129.53,51.3c-1.03-2.19-3.02-2.55-2.89-5.54.12-2.77,3.05-3.78,2.94-7.46-.13-3.92-3.73-4.76-3.56-8.17.03-.54.55-2.38,1.1-2.51,1.55-.36,4.3.34,5.75,1.01,6.17,2.86,8.5,10.63,5.05,16.48-1.08,1.82-5.76,7.07-7.42,8.45-.12.1-.15.25-.37.2.04-.86-.22-1.69-.58-2.46ZM143.12,28.43c.77-.89,0-2-1.09-1.61l-3.98,3.14-.17-.02c-.13-.59-1.31-1.11-1.53-1.43-.09-.13-.1-.24-.01-.38l2.71-3.94c.41-1.03-.67-1.86-1.53-1.17l-2.82,4.14-.72-.26,3.24-11.68c.72.14,1.47.45,2.03.94,2.11,1.83.79,4.85,3.34,7.17,1.83,1.67,3.1,1.24,5.21,1.59,1.49.25,2.81,1.54,3.22,2.96l-.03.17-11.27,4.06c-.26.05-.48-.51-.39-.67l3.78-3.01Z"/><path class="cls-5" d="M203.54,136.57c-.8.73-1.02,2.95-1,4.01-.94.05-2.76.29-3.27,1.2s-.35,2.57-.06,3.54c-2.18.34-4.44.65-3.16,3.42.25.53.61,1.08,1.08,1.44-.49.67-1.48,1.07-2.05,1.77-1.16,1.43-.46,3.03.87,4.02-.77.9-2.3,2.41-2.27,3.68.03.99,2.34,2.48,3.24,2.72-.91,1.36-1.44,2.6-1.15,4.25.15.84.4,1.68,1.29,1.92,4.18,1.14,11.13-.82,14.74-3.06,2.62-1.62,5.12-5.33,8.45-3.25,1.81,1.13,2,3.2,2.87,4.96,2.01,4.04,5.73,7.76,9.78,9.78.94.47,2.3,1.27,3.22.68,1.65-1.06,2.31-3.15,1.96-5.02.1-.21,3.63.38,4.31-1.06.38-.82.09-3.1-.41-3.91.17-.36,2.69-.69,2.94-2.42.11-.76-.68-2.51-1.11-3.18l.03-.22c.89-.35,1.78-.71,2.42-1.46.99.38,2.8,1.08,3.82.65.96-.41,1.8-2.03,2.15-2.97,1.04.43,2.09,1.06,3.26.95,1.46-.14,1.46-2.7,1.36-3.82,1.02.13,3.22.06,3.78-.89s.6-2.07.36-3.09c.96-.16,3.38-.76,3.88-1.61.58-.97-.48-3.31-1.09-4.15,1.26-.45,2.46-1.18,3.12-2.39,1.26-2.3.59-2.75-1.51-3.81-1.71-.86-3.97-1.75-5.8-2.31-3.75-1.16-9.68-.58-10.24-5.63-.28-2.52,1.33-3.9,2.47-5.89,1.57-2.76,3.02-5.73,3.76-8.84.14-.59.43-1.44.06-1.95-.95-1.33-4.41-1.61-5.63-.4l-.2-.09c-.29-1.06-1.12-3.31-2.32-3.55-.87-.18-3.18.99-3.64,1.81-.44-.42-.67-.89-1.19-1.27-2.16-1.6-3.23-.02-4.78,1.46-.55-.81-1.48-1.58-2.43-1.84-1.62-.44-2.38,2.17-2.67,3.38-1.13-.55-3.1-1.25-4.12-.26-.86.84-.98,1.73-1.18,2.84-.69-.45-3.52-.29-4.05.21-.98.95-.48,3.11-.31,4.3-1.84.11-3.85.95-4.7,2.72-.48.99.86,2.65,1.47,3.46,2.78,3.7,6.37,6.26,10.74,7.82,2.47.88,5.63.47,6.76,3.39.06.17.25.92.23,1.05-.05.35-1.62.92-2.05,1.16-1.92,1.07-3.83,2.31-5.54,3.69-2.08,1.67-3.83,4.31-6.75,4.08-4.49-.35-4.65-4.69-6.12-7.97-.83-1.86-1.99-3.98-3.18-5.63-1.37-1.91-2.2-3.39-4.46-1.31-1,.92-1.47,2.11-1.75,3.41-.8-.52-3.45-1.21-4.22-.51ZM198.95,147.2c.8-.02,2.94.69,2.9-.66,0-.33-.86-1.32-1.01-1.98-.48-2.01.28-2.33,2.13-2.04.61.09,1.4.66,1.97.11.71-.69-.12-1.23-.4-1.82-.31-.66-.3-2.12.19-2.65.6-.66,3.59,1.63,4.38,1.06.75-.54.28-1.4.45-2.12.24-1,.76-1.98,1.67-2.49.3-.05,1.2,1.31,1.4,1.6.74,1.05,1.53,2.42,2.12,3.57,2.26,4.44,2.47,10.73,9,10.63,3.44-.06,5.01-2.6,7.46-4.55,2.31-1.84,5.02-3.52,7.77-4.56.77.81.71,2.28.32,3.25-.27.68-1.38,1.81-.12,2.29.92.35,2.98-.19,3.96.75-.14.8-.44,1.9-1.11,2.41-.28.21-.85.25-1.05.49-1.57,1.9,3.04,1.58,3.27,3.06.06.42-.97,1.72-1.36,1.99-.53.37-1.78.42-1.43,1.5.29.91,2.95,1.09,3.27,2.31-.06.33-1.58.88-1.95,1.01-.81.28-1.6,0-1.83,1.07-.15.7.69.91,1.07,1.27.35.34,1.27,2.05.98,2.45-.81,1.12-3.5.36-3.9,1.31-.36.84.63,1.08,1.02,1.53.35.4.86,2.28.56,2.7-.9.59-3.78-.38-4.31-.03-.81.54.04,2.04,0,3.03s-.28,1.7-1.02,2.35c-4.12-1.5-7.87-4.76-10.07-8.54-1.87-3.22-1.78-6.92-6.43-7.56-3.12-.43-4.32,1.4-6.48,3.04-3.41,2.58-7.7,4.01-11.98,4.02-.45,0-2.28-.02-2.55-.16-.87-.43-.03-2.55.34-3.13.4-.64,1.5-1.12,1.22-2.02-.21-.67-.73-.49-1.16-.67-.93-.38-2.01-.75-2.65-1.56.1-.61,1.18-1.84,1.77-2.05.55-.2,1.24.18,1.58-.56.58-1.25-2.89-2.1-2.67-3.42.07-.45,1.46-1.43,1.94-1.55.65-.17,1.53.15,1.78-.83.11-.81-3.16-2.98-2.26-3.66.05-.04,1.06-.17,1.23-.17ZM227.51,118.68c.49.3.73,1.05,1.51.63s.29-1.25.28-1.92c-.02-1.91.32-2.74,2.36-1.9.82.34,1.54,1.65,2.31,1.18s.43-3.29,1.26-4.09c1.26.27,1.88,2.77,2.81,2.96,1.07.22,1.06-1.35,1.54-2.1.15-.24,1.18-1.18,1.38-1.15.74.12,1.25.89,1.58,1.49.38.68.21,1.29,1.09,1.59,1.05.35.94-.92,1.22-1.47s1.95-1.73,2.45-1.24c.9.88.72,3.57,1.48,3.95s1.62-.7,2.29-1.03c.89-.43,2.01-.52,2.87.03-.49,2.09-1.18,4.18-2.11,6.12-1.96,4.09-6.04,7.45-3.48,12.26,1.92,3.62,5.14,3.31,8.55,4.12,3.04.72,6.03,1.84,8.75,3.38-.3,1.13-1.15,1.83-2.22,2.2-.78.26-2.36.06-2.06,1.39.13.6,2.22,2.77,1.84,3.53-.58.49-2.03.95-2.75.67-.46-.18-.74-.75-1.41-.43-1.46.71,1.2,3.01.14,4.31-.37.45-2.04.36-2.55.16-.6-.23-.95-.85-1.71-.35s.15,2.03.2,2.88c.03.43-.08.83-.03,1.26-1.31.4-2.91-2.03-3.96-1.71-.95.29-.4,1.18-.51,1.81-.08.48-.82,2.16-1.31,2.2-2.16-.06-3.2-1.7-4.85-2.73.52-.9,1.59-1.94,1.7-3s-1.45-2.58-2.44-2.82c.71-.9,1.84-3.54.88-4.49-.76-.75-2.54-1.2-3.61-1.21.63-1.57.55-4.07-.73-5.31-.29-.28-.77-.46-.92-.65-.1-.13-.43-1.49-.64-1.89-1.49-2.82-3.36-2.62-5.97-3.33-2.98-.81-5.34-1.9-7.76-3.84-1.91-1.53-3.43-3.35-4.77-5.39.31-1.04,1.61-1.65,2.63-1.68.67-.02,1.91.46,2.32-.14.56-.83-.06-1.28-.25-2.05-.1-.41-.49-2.33-.18-2.56,1.01-.13,1.88-.2,2.8.37Z"/><path class="cls-5" d="M212.87,156.97c5.22-2.05,11.82,0,15.43,4.2.53.62.38,1.03-.22,1.57-.72.29-2.76-1.85-3.47-2.35-3.79-2.65-8.07-3.42-12.25-1.19-.83.44-1.84,1.72-2.73.98-1.33-1.11,2.48-2.91,3.25-3.21Z"/><path class="cls-5" d="M230.8,153.7c-.5.26-2.7.68-3.36.78-5.01.75-9.8-.6-12.99-4.74-.55-.72-2.52-3.37-.64-3.6.85-.1,1.35,1.54,1.84,2.22,2.78,3.89,7.2,5.08,11.75,4.32.66-.11,2.85-.82,3.21-.76.91.14,1.09,1.32.19,1.78Z"/><path class="cls-5" d="M252.16,141.57c.23.64-.35,1.39-1.11,1.2-.7-.18-2.97-2.26-3.57-2.89-2.89-3-4.57-7.03-3.88-11.24.16-.99,1-5.03,2.47-4.28,1.11.56-.08,2.12-.36,2.98-1.49,4.63.53,9.13,3.99,12.21.46.41,2.33,1.68,2.45,2.02Z"/><path class="cls-5" d="M242.9,144.32c-.34.13-1.02-.16-1.16-.5-.11-.27-.03-2.28-.08-2.85-.39-3.87-2.42-7.48-5.99-9.26-.83-.41-3.09-.71-2.99-1.75.17-1.63,3.3-.1,4.07.3,4.12,2.18,6.44,6.57,6.73,11.11.05.76.24,2.64-.58,2.95Z"/><path class="cls-5" d="M156.89,165.58c1.27-1.22-1.66-4.13-2.25-5.21.47-.59.72-1.81,1.16-2.33.58-.69,3.72-1.83,4.76-2.36,3.12-1.6,8.83-4.86,9.55-8.55.68-3.47-4.02-5.87-6.65-7-2.05-.88-4.24-1.38-6.32-2.18-.87-2.14-1.55-4.33-2.67-6.37-2.51-4.58-6.11-7.72-10.5-10.41l-.21-.54c-.09-4.6-.7-16.82-8.11-13.86-3.11,1.24-6.07,4.35-8.23,6.86-.79.92-2.56,3.61-3.46,4.01-.61.27-1.75.23-2.43.53-.9-.83-2.95-4.21-4.41-3.48-2.12,1.05,1.61,3.24,2.01,4.26-2.28.97-4.6,2.12-6.35,3.9-.99-.44-4.09-2.31-4.23-.09-.08,1.32,1.68,1.19,2.4,1.88-4.12,5.29-3.97,12.87-2.09,19.01,2.87,9.38,9.6,17.96,18.03,22.98,5.54,3.3,12.82,5.23,18.96,2.49.48.86,0,2.85,1.46,2.79,2.03-.09.83-2.99.72-4.14,2.12-1.31,3.82-3.24,5.3-5.24.95.67,2,4.58,3.58,3.06ZM141.22,127.84c-.62.49.21,2.29,1.43,1.72.87-.4,4.19-3.46,4.47-3.42l2.57,2.57-8.23,6.45c-.79.62.63,2.44,1.42,1.82l8.23-6.45,1.88,3.1c-.03.28-3.79,2.79-4.38,3.53-.89,1.11.73,2.27,1.33,1.8l3.91-3.07c.8,1.81.69,3.59,2.8,4.46,2.97,1.23,5.9,1.49,8.83,3.41,2.33,1.53,3.2,2.6,1.2,4.92-3.17,3.69-7.52,4.56-11.34,6.8-1.49.87-1.74,1.98-2.51,3.39-1.69-1.27-3.56-2.48-5.51-3.32-.97-.42-2.8-1.37-3.47-.18-.83,1.49,2.76,2.36,3.76,2.88,1.43.74,2.75,1.69,4.05,2.63-1.26,1.76-2.72,3.31-4.37,4.71-.18-.02-1.24-2.23-1.49-2.59-.53-.8-1.83-2.55-2.49-3.16-.92-.86-2.36.26-1.86,1.3.45.93,1.72,2.11,2.36,3.06.2.3,1.47,2.58,1.31,2.74-6.76,2.98-14.68-.26-20.2-4.46-5.32-4.04-9.24-8.91-12.06-14.96-3.07-6.56-4.67-15.5.04-21.66.19-.12,2.1,1.66,2.35,1.92.77.84,1.61,2.36,2.41,3.02.9.73,2.33-.39,1.71-1.5-.44-.78-1.83-2.46-2.48-3.17-.3-.33-2.19-1.88-2.17-2.06,1.75-1.27,3.61-2.32,5.62-3.12.83,1.86,1.41,3.72,1.83,5.72.19.9.09,3.6,1.67,3.17,1.36-.37.84-2.34.65-3.41-.37-2.09-1.07-4.19-1.91-6.14,1.54-.42,2.71-.39,3.9-1.63,3.06-3.21,4.98-7.21,9.3-9.4,2.73-1.39,3.58-.29,4.49,2.34,1.16,3.34.72,6.19,1.21,9.39.35,2.26,2.1,2.57,3.67,3.78l-3.91,3.07Z"/><path class="cls-5" d="M133.45,140.3c.47.4,2.26,2.69,2.54,3.24.43.85.16,2.2-.6,2.8-1.21.96-3.35.22-4.76.25-1.53,1.01-2.56,2-2.29,3.94.29,2.09,1.58,2.97,3.61,3.01.99.02,2.09-.63,2.71.42,1.03,1.73-1.99,1.93-2.99,1.9-2.95-.1-5.21-1.88-5.61-4.88-.11-.85.08-1.52.02-2.34-3.86-.2-6.37-3.08-5.64-6.97.19-.98,1.04-3.83,2.48-2.64,1.02.84.15,1.66-.1,2.62-.52,2-.08,3.53,1.92,4.38,1.87.8,3.18,0,4.55-1.34.17-1.23.18-3.55,1.18-4.39.78-.65,2.2-.66,2.98,0Z"/><path class="cls-5" d="M133.74,134.93c-1.7-.28-.58-2-.72-2.95-.16-1.12-.82-1.96-1.87-2.39-.83-.33-2.99.28-2.68-1.48.26-1.45,2.66-1,3.65-.59,1.79.74,2.85,2.1,3.15,4.01.16,1.03,0,3.65-1.52,3.4Z"/><path class="cls-5" d="M146.56,151.27c-1.7-.28-.58-2-.72-2.95-.16-1.12-.82-1.96-1.87-2.39-.83-.33-2.99.28-2.68-1.48.26-1.45,2.66-1,3.65-.59,1.79.74,2.85,2.1,3.15,4.01.16,1.03,0,3.65-1.52,3.4Z"/><path class="cls-5" d="M26.45,97.86c-.84.93-.82,2.41-1.15,3.61-.5,1.8-1.29,3.57-2.26,5.16-.4.65-1.62,2.04-1.81,2.52-.29.73.09,1.54.9,1.4.97-.16,2.71-3.39,3.27-4.28l1.79-4.33,2.79,6.99c-.83,5.64-5.66,10.66-11.45,10.89l-6.55-2.66c.02-.19.19-.19.32-.24,2.06-.8,5.01-1.7,6.67-3.22.73-.67.44-1.74-.49-1.74-.4,0-2.32,1.37-2.9,1.68-1.47.77-2.98,1.28-4.58,1.73-1.05.3-2.3.24-3.09,1.05v.74c5.9,6.97,5.9,17.77,0,24.74v.74c.26.15.38.37.67.5,1.02.45,2.89.65,4.12,1.07,6.23,2.14,10.28,6.92,12.31,13.05.43,1.3.58,2.88,1.45,3.93h.74c5.09-3.23,10.66-4.88,16.7-3.53,2.88.64,5.52,2.06,8.04,3.53h.62c.25-.23.48-.33.63-.67.4-.95.55-2.82.95-4,1.98-5.91,6.83-10.61,12.78-12.46,1.09-.34,2.72-.51,3.66-.92.29-.13.42-.35.67-.5v-.74c-5.61-7.23-5.85-17.57,0-24.74v-.74c-.26-.15-.38-.37-.67-.5-1.29-.57-3.26-.8-4.71-1.35-5.96-2.23-10.54-7.29-12.15-13.46-.29-1.11-.23-2.42-1.02-3.24h-.74c-5.83,2.73-11.38,4.56-17.84,2.69l-6.9-2.69h-.74ZM47.43,108.01c-1.97.84-4.06,1.81-6.21,2.08-3.45.44-6.44-.7-9.52-2.08l-3.15-7.49c2.08.65,4.05,1.61,6.19,2.1,5.62,1.29,10.71.2,15.84-2.17l-3.15,7.55ZM66.99,117.18c-1.96,1.07-4.75,1.82-6.83,2.71-5.57-.9-10.16-5.25-11.01-10.88l2.78-7.07,1.34,3.42c2.73,5.61,7.88,10.08,14,11.55-.01.15-.17.21-.29.27ZM43.29,118.19c-2.46,1.29-4.98,1.29-7.44,0l-3.08-7.53c-.03-.17,0-.24.18-.18.3.09.76.37,1.12.49.73.26,1.51.53,2.27.7,3.45.76,6.84.25,10.04-1.2l-3.08,7.71ZM22.18,120.99c3.96-2,6.2-3.25,8.28-7.43.09-.19.69-1.81.82-1.72l2.91,7.16c-.32,2.67-2.52,4.75-5.15,5.15l-7.16-2.91c.01-.17.19-.19.3-.25ZM57.1,121.27l-6.84,2.81c-2.67-.16-4.9-2.38-5.33-4.99l2.93-7.25,1.43,2.83c1.81,2.95,4.64,5.3,7.97,6.32l-.16.28ZM12.81,121.95l-1.39-3.06,6.93,2.97c3.36,4.57,3.35,10.88-.06,15.41l-6.93,2.9c3.17-5.49,3.73-12.27,1.45-18.21ZM66.32,122.2c-1.63,4.51-1.66,9.42-.19,13.98l1.83,4.11-6.98-2.91c-3.4-4.61-3.51-10.92-.13-15.58l6.93-2.91c-.45,1.12-1.04,2.17-1.45,3.31ZM40.18,125.7c-.39-.19-.84-.19-1.23,0l-1.98-5.07c1.66.54,3.53.54,5.19,0l-1.98,5.07ZM33.32,124.21c.83-.7,1.39-1.62,2.04-2.47l1.83,4.62-.88.8-4.54-1.83c.43-.47,1.05-.7,1.54-1.12ZM47.2,125.36c-1.16.73-3.05,1.07-4.26,1.81-.36.05-.76-.54-1-.8l1.83-4.62c.99,1.31,1.94,2.8,3.59,3.34.06.28-.03.2-.16.28ZM22.46,126.66l-1.14-3.69,7.05,2.97c1.6,2.04,1.61,5.23-.07,7.24l-7.05,2.91c1.29-2.99,1.87-6.19,1.2-9.43ZM58,135.9l-.18.18-6.98-2.92c-1.61-2.11-1.68-5.21,0-7.29l7.17-2.91c-1.99,3.99-2.05,8.95,0,12.93ZM35.73,130.14l-4.7,1.86c.53-1.59.53-3.36,0-4.95l4.7,1.86c-.19.39-.19.84,0,1.23ZM48.1,132l-4.7-1.86c.15-.44.15-.78,0-1.22l4.7-1.86c-.49,1.68-.47,3.27,0,4.95ZM40.48,131.37c-2.95,1.38-4.28-3.47-1.19-3.92,2.23-.33,3.31,2.93,1.19,3.92ZM33.01,134.66c-.17-.14-1.33-.8-1.24-.92l4.62-1.83.8.88-1.83,4.66c-.7-1-1.4-1.99-2.35-2.78ZM45.56,135.09c-.74.67-1.19,1.45-1.79,2.23l-1.83-4.62.88-.8,4.54,1.83c-.53.53-1.24.85-1.8,1.36ZM42.16,138.19c-1.76-.49-3.44-.48-5.2,0l1.99-4.82c.44.15.78.15,1.22,0l1.99,4.82ZM29.15,143.47c-1.32-1.83-3.09-3.49-5.09-4.56-.23-.12-2.29-.95-2.19-1.09l7.23-2.91c2.6.44,4.8,2.67,5.01,5.31l-2.97,7.25-2-4ZM56.95,138.07c-.79.4-3.61,1.41-3.78,2.29-.09.49.12.96.61,1.12.7.22,1.58-.68,2.23-1,1.28-.65,2.85-1.12,4.27-1.3,2.03.97,4.79,1.64,6.71,2.7.14.08.21,0,.16.28-6.19,1.46-11.36,6.08-14,11.79l-1.21,3.18-2.79-6.99c.22-1.57.77-3.09,1.53-4.48.41-.75,1.71-2.02.95-2.77-1.15-1.12-2.18,1.3-2.69,2.03l-1.09,2.31-2.86-6.99c.04-2.69,2.41-4.81,4.94-5.32l7.31,2.91c-.01.17-.19.19-.3.25ZM26.89,157.12c-1.86-4.65-2.9-7.54-6.93-10.88-2.73-2.26-4.64-2.7-7.67-4.08-.12-.06-.29-.08-.3-.25l6.55-2.66c5.83.28,10.42,5.29,11.39,10.89l-2.85,7.23c-.17.04-.14-.13-.18-.25ZM43.11,147.08c-2.29-.55-4.69-.55-6.98-.02l-3.24,1.09,3.04-7.36c2.25-1.48,5.04-1.48,7.29,0l3.03,7.42c-1.03-.42-2.05-.87-3.14-1.13ZM50.33,158.11c-1.15-.46-2.23-1.07-3.4-1.49-5.04-1.81-10.57-1.69-15.52.32-.93.38-1.82.86-2.73,1.29l2.96-7.21c4.94-3.3,10.85-3.27,15.81-.05l2.88,7.14Z"/><path class="cls-5" d="M203.9,26.41c2.09,1.35,3.27,3.75,4.42,6.06.82,1.65,1.66,3.36,2.82,4.64,2.34,2.58,4.54,2.86,7.09,3.18,1.24.16,2.52.32,3.94.74,4.96,1.49,5.97,2.92,8.18,6.07.29.42.61.87.96,1.35,2.55,3.53,6.85,7.05,12.87,3.72.13-.07.33-.22.57-.39,1.06-.76,1.99-1.37,2.7-1.17.27.07.47.26.6.54.05.45.02.84-.06,1.27-.32,1.68-.81,3.4-1.45,5.13-3.42,9.14-10.39,16.37-17.74,18.41-1.53.43-2.81.41-4.17.39-.6,0-1.21-.02-1.86.01-5.25.24-11.03,2.54-14.74,5.84-.77.69-1.5,1.51-2.19,2.31-1.18,1.34-2.39,2.73-3.95,3.61-3,1.71-6.58,1.6-8.9-.28-2.02-1.64-2.65-4.27-1.71-7.21.03-.09.06-.18.1-.28.15-.41.38-.89.61-1.4.27-.58.56-1.2.79-1.82.48-1.29.57-2.18.27-2.81-.2-.42-.59-.72-1.19-.92-.64-.21-1.28-.29-1.95-.37-.89-.11-1.81-.23-2.81-.65-8.86-3.79-10.88-13.21-8.28-20.15,1.83-4.87,5.79-8.42,10.89-9.74.89-.23,1.8-.27,2.68-.3,2-.08,3.72-.15,4.56-2.39l.08-.24c.57-1.74-.06-3.06-.73-4.45-.53-1.1-1.08-2.25-1.05-3.64.02-.86.17-1.68.45-2.44.63-1.68,1.86-2.92,3.39-3.43,1.53-.51,3.24-.22,4.82.8ZM210.27,39.17c-1.73-1.63-2.68-3.6-3.6-5.5-.79-1.63-1.53-3.17-2.72-4.46-1.22-1.32-2.72-1.95-4.01-1.7-1.04.2-1.85.95-2.28,2.11-.17.47-.29,1-.33,1.57-.1,1.19.38,2.18.89,3.24.59,1.22,1.25,2.6,1.03,4.44-.09.75-.24,1.41-.46,1.98-1.08,2.88-3.62,3.12-6.07,3.36-1.24.12-2.51.24-3.68.67-3.94,1.47-6.91,4.4-8.35,8.25-2.23,5.96-.49,14.06,7.14,17.35.77.33,1.7.47,2.6.61,2.08.32,4.43.68,4.8,3.6.12.92-.04,1.87-.49,3.09-.2.52-.43,1.05-.66,1.58-.23.52-.47,1.05-.67,1.58-.35.93-.52,1.7-.53,2.43-.02,1.2.48,2.21,1.44,2.91,1.36.99,3.53,1.25,5.27.65,1.99-.69,3.19-2.08,4.47-3.56.46-.54.94-1.08,1.46-1.61,3.84-3.88,9.35-6.53,15.1-7.28,1.08-.14,2.17-.13,3.23-.12,1.49.01,2.91.02,4.29-.35,3.07-.82,7.45-3.73,9.61-5.92,2.68-2.72,4.88-6.44,6.73-11.38.35-.94.69-1.91,1.02-2.95-4.32,2.19-8.15,2.89-12.66-.61-1.59-1.23-2.63-2.78-3.63-4.28-1.3-1.94-2.53-3.77-4.84-4.84-1.94-.89-3.91-1.22-5.82-1.53-2.95-.48-5.73-.94-8.27-3.34Z"/><path class="cls-5" d="M196.27,60.08c1.68.58,3.07,2.1,2.41,4.19l-.06.19c-.77,2.05-2.99,2.61-4.78,2.1-1.64-.46-3.12-1.85-2.72-3.9.04-.23.11-.45.18-.65.8-2.12,3.11-2.58,4.97-1.93ZM196.69,63.73c.1-.27.08-.58-.06-.91-.32-.73-1.18-.98-1.83-.96-.76.02-1.39.37-1.58.9-.08.21-.1.44-.06.7.15.98,1.07,1.18,1.46,1.22.93.1,1.84-.32,2.07-.95Z"/><path class="cls-5" d="M201.19,54.92c-.13.11-.22.24-.28.4l-.04.15c-.18.85.69,1.15,1.33,1.38.33.12.68.24.86.4.4.34.53.89.34,1.4-.02.07-.06.13-.09.19-.3.52-.89.62-1.47.72-.54.1-1.11.2-1.31.74h0c-.18.57.05.88.21,1.03.63.57,2.17.25,2.7.02.89-.38,1.56-1.07,1.88-1.94.62-1.66-.15-3.5-1.79-4.28-.78-.37-1.81-.7-2.34-.2Z"/><path class="cls-5" d="M196.91,49.56c1.68.58,3.07,2.1,2.41,4.19l-.06.19c-.77,2.05-2.99,2.61-4.78,2.1-1.64-.46-3.12-1.85-2.72-3.9.04-.23.11-.45.18-.65.8-2.12,3.11-2.58,4.97-1.93ZM197.33,53.2c.1-.27.08-.58-.06-.91-.32-.73-1.18-.98-1.83-.96-.76.02-1.39.37-1.58.9-.08.21-.1.44-.06.7.15.98,1.07,1.18,1.46,1.22.93.1,1.84-.32,2.07-.95Z"/><path class="cls-5" d="M251.06,270.19l11.41-18.93,22.28-1.59c.43-.03.8-.3.96-.7.16-.4.09-.85-.19-1.17l-14.62-16.72,4.74-21.27c.09-.41-.05-.84-.38-1.11-.32-.27-.77-.34-1.16-.18l-19.83,8.3-18.86-11.28c-.37-.22-.81-.21-1.19.02-.36.23-.56.64-.52,1.07l2.12,21.45-17.21,14.26c-.33.27-.47.7-.38,1.11.09.41.4.74.81.85.25.07,6.04,1.61,8.1,2.08,2.94.67,5.91,1.31,8.88,1.94,1.53.33,3.06.65,4.58.98l8.43,20.74c.16.4.53.67.96.7.24.02.48-.04.68-.16.15-.09.28-.22.38-.38ZM260.83,249.6l-10.54,17.5-7.81-19.2c-.14-.35-.44-.6-.81-.68-1.72-.38-3.45-.74-5.18-1.11-2.96-.63-5.91-1.26-8.84-1.93-1.25-.28-3.97-.99-5.9-1.5l15.98-13.24c.29-.24.44-.61.4-.98l-1.96-19.81,17.42,10.42c.31.18.69.21,1.02.07l18.34-7.68-4.39,19.69c-.08.35.01.72.25.99l13.5,15.44-20.6,1.48c-.18.01-.36.07-.51.16s-.28.22-.38.38ZM237.02,228.55h-.01s.01,0,.01,0Z"/><path class="cls-5" d="M139.52,264.99c.71-.96,1.43-2.23,1.94-3.33,2.61-5.68-2.71-6.39-6.27-8.72-2.23-1.46-1.09-4.48,1.48-4.06,5.21,2.41,10.32,6.03,15.53,8.33s8.91-4.51,4.33-7.54c-1.52-1-4.1-1.86-5.39-2.93-.34-.28-.82-1.59-.63-1.95l1.34-2.5,1.89,1.01,2.03-3.77,11.37,6.11c7.16,3.27,17.32.38,21.6-6.27.51-.79.88-1.75,1.37-2.55l.98-3.22c2.1-10-4.82-19.69-15.12-20.74-2.06-.21-4.1.22-6.13-.3-6.58-1.68-6.51-6.2-10.84-9.85-12.79-10.8-31.98.8-27.68,17.27,1.08,4.11,3.75,8.16,7.41,10.42l11.27,6.05-2.03,3.77,1.89,1.01-1.04,1.94c-.63,1.16-.54,3.01.1,4.16,1.01,1.83,4.49,2.89,6.29,4.06,2.65,1.73.83,5.09-1.99,3.92-5.21-2.29-10.45-6.23-15.64-8.38-2.54-1.05-5.34.93-5.69,3.57-.55,4.21,4.54,5.12,7.18,6.95,2.47,1.7-.95,4.61-1.32,6.58l1.78.95ZM151.79,237.62l.26-.05c.55.34,1.46.54,1.73,1.12l-.92,1.72-2-1.07.92-1.72ZM139.85,228.56c-6.03-3.75-8.76-12.87-5.72-19.3,3.79-8.01,13.97-11.04,21.52-6.39,6.01,3.7,5.51,9.87,13.88,11.82,2.37.55,4.57.04,6.91.39,11.19,1.64,16.66,14.72,9.96,23.81-3.79,5.15-12.28,7.47-18.16,4.88l-28.4-15.2Z"/><path class="cls-5" d="M167.75,235.32c-.13.24.21.98.45,1.17.69.52,2.92,1.68,3.77,2.04.37.16,1.24.21,1.44-.16l2.18-4.05,4.05,2.18c.32.17,1.01-.28,1.22-.57.53-.73,1.48-2.57,1.86-3.43.18-.4.46-1.39-.04-1.66l-4.05-2.18,2.18-4.05c.17-.32-.28-1.01-.57-1.22-.73-.53-2.56-1.48-3.43-1.86-.4-.18-1.39-.46-1.66.04l-2.18,4.05-4.05-2.18c-.24-.13-.98.21-1.17.45-.52.69-1.68,2.92-2.04,3.77-.16.37-.21,1.24.16,1.44l4.05,2.18-2.18,4.05ZM172.44,231.12c.08-.14-.19-1.03-.33-1.11l-4.05-2.18,1.01-1.89,4.05,2.18c.14.08,1.03-.19,1.11-.33l2.18-4.05,1.89,1.01-2.18,4.05c-.12.21.12.99.33,1.11l4.05,2.18-1.01,1.89-4.05-2.18c-.14-.08-1.03.19-1.11.33l-2.18,4.05-1.89-1.01,2.18-4.05Z"/><path class="cls-5" d="M153.07,206.34c-5.25-3.21-9.84,5.68-3.4,7.87,4.38,1.48,7.77-5.19,3.4-7.87ZM148.68,210.09c0-2.05,2.46-2.98,3.79-1.42.98,1.15.42,3.06-1.05,3.46-1.3.36-2.74-.66-2.74-2.04Z"/><path class="cls-5" d="M155.54,215.14c-5.08-1.48-7.72,6.05-2.86,8.11,5.47,2.33,8.72-6.4,2.86-8.11ZM154.96,217.24c3.09,1.12,1.1,5.16-1.5,4.02-2.43-1.07-.88-4.88,1.5-4.02Z"/><path class="cls-5" d="M140.49,222.32c1.24,5.75,10.1,3.46,8.35-2.19-1.61-5.18-9.49-3.11-8.35,2.19ZM145.16,219.29c3.02.9,1.55,5.11-1.16,4.17s-1.09-4.84,1.16-4.17Z"/><path class="cls-5" d="M143.15,208.33c-5.04-2.71-9.13,5.36-3.78,7.76,4.97,2.23,8.65-5.15,3.78-7.76ZM141.65,210.08c3.2,1.12,1.17,5.2-1.38,4.08s-.88-4.88,1.38-4.08Z"/><path class="cls-5" d="M60.09,51.08c.68-.76.04-2.12-.97-1.94-.74.13-3.31,2.05-3.5,2-.66-1.37-1.89-2.32-3.45-2.26s-2.84,1.28-4.15,1.94l-4.05-4.03,15.47-9.37c1.98-1.2,2.5-4.37,1.29-6.29l-15.03-24.83c-1.52-2.42-4.6-3.11-6.9-1.33-.23-.58-.17-1.21-.44-1.8-2.26-4.95-9.03-3.89-9.59,1.61-.22,2.12-.05,4.32-.32,6.44L1.61,27.5c-1.83,1.71-2.05,3.86-.91,6.05l15.04,24.83c1.13,1.95,4.21,2.96,6.17,1.77l15.47-9.37,1.69,5.45c-1.2.86-2.89,1.46-3.64,2.78s-.5,2.88.41,4.1c-.05.2-2.94,1.58-3.4,2.18-.62.82.29,2.01,1.27,1.76l26.38-15.98ZM36.37,4.34c.23.76-.51,4.93-.66,6.03-.3,2.21-.71,4.4-.95,6.62l-.23.25-4.03-.39.59-12.4c.14-.58.41-1.13.88-1.52,1.61-1.3,3.8-.56,4.4,1.41ZM27.93,23.24c-2.81,1.99-4.54,4.8-3.58,8.29.62,2.25,2.6,5.2,4.43,6.67,1.68,1.35,1.91-.75,2.49-1.66,1.27-1.98,3.71-2.37,5.38-3.96,1.89-1.79,2.08-4.71.73-6.9-.27-.43-1.35-1.41-1.38-1.76l2.25-15.92c1.39-.74,2.75-2.32,4.42-1.51.2.1.87.65.96.81l11.25,18.57-30.6,18.53c-.31.19-.59,1-.42,1.39s.93.95,1.3.73l30.75-18.62.23.06,2.7,4.46s.23.7.25.81c.2,1.05-.45,2.02-1.32,2.56l-36.67,22.21c-.87.46-1.89.57-2.72-.03-.11-.08-.57-.48-.61-.55l-2.76-4.56.06-.23,3.01-1.82c.37-.22.22-1.16-.04-1.49s-1.11-.47-1.42-.28l-2.86,1.73L2.52,32.19c-.05-.08-.24-.82-.26-.97-.06-.45.24-1.6.62-1.83l25.46-15.42-.41,9.27ZM32.87,23.26c-.87-.04-1.77-.19-2.63-.3l.18-3.75.33-.08,3.6.41-.44,3.63c-.11.2-.79.1-1.03.09ZM36.01,28.94c-.16,2.48-2.59,2.92-4.3,4.06-.96.64-1.78,1.47-2.44,2.41-2.31-2.47-4.31-6.1-1.53-9,.46-.49.98-.96,1.61-1.22l4.97.45c.95.41,1.76,2.28,1.7,3.3ZM39.34,49.61l2.64-1.62,4.01,4.08-4.85,2.94-1.8-5.39ZM37.78,61.94c-.83-1.15-.71-1.71.4-2.5,4.12-2.93,9.17-5.23,13.39-8.09,1.07-.49,1.62-.03,2.12.96l-15.91,9.63Z"/><path class="cls-5" d="M20.45,46.76c1.11-.75,2.43.89,1.42,1.74-1.39,1.18-2.67-.9-1.42-1.74Z"/><path class="cls-5" d="M79.44,223.28c1.41,3.44,4.74,5.52,8.43,4.66,7.75-1.81,11.55-13.3,6.5-19.46l-27.07-27.61c-1.51-1.29-3.56-.87-4.43.93l-17.72,32.18c-.41.53-.54,2.21-.09,2.67l21.83,22.26c-4.78,2.95-7.35,10.08-5.47,15.38,1.42,4.02,5.11,6.31,9.28,5.04,7.09-2.15,10.67-12.91,6.17-18.88l-22.22-22.64-.2-.43,14.41-26.07,15.75,16.06c-4.85,3.28-7.41,10.43-5.16,15.91ZM66.1,182.89l26.12,26.64c5.46,4.76-.32,18.38-7.43,16.05-6.16-2.01-4.05-11.94-.06-15.38.69-.59,2.42-1.28,2.78-1.68.25-.28.31-.84.14-1.18l-18.41-18.87c-.44-.47-1.23-.36-1.61.09l-15.37,27.83c-.27.55-.68,1.07-.4,1.7l23.07,23.61c3.4,4.43,1.17,11.92-3.36,14.71-1.54.95-3.98,1.38-5.56.27-5.01-3.54-2.92-11.76,1.22-15.17,1.01-.84,3.17-1.16,2.6-2.74l-22.75-23.39,18.32-32.93c.25.01.51.27.69.43Z"/></pattern></defs><g id="Layer_4"><rect class="cls-3" y="24" width="2549" height="1569"/></g><g id="Layer_5"><rect class="cls-4" width="2741" height="1617"/></g></svg>