<svg width="217" height="101" viewBox="0 0 217 101" fill="none" xmlns="http://www.w3.org/2000/svg">
<path d="M0 85.33V76.77L29.39 66.08V70.88L0 60.19V51.63L32.61 64.03V72.94L0 85.33Z" fill="#9966CB"/>
<path d="M47.85 31.54L61.34 0.399994H70.65L84.06 31.55H75.12L63.43 3.44999H68.5L56.8 31.54H47.86H47.85Z" fill="#9966CB"/>
<path d="M89.02 31.54V24.83H126.01V31.54H89.02Z" fill="#9966CB"/>
<path d="M130.95 31.55L144.44 0.399994H153.75L167.16 31.55H158.22L146.52 3.45999H151.59L139.89 31.55H130.95Z" fill="#9966CB"/>
<path d="M216 85.33L183.39 72.93V64.02L216 51.62V60.18L186.61 70.87V66.07L216 76.76V85.32V85.33Z" fill="#9966CB"/>
<path d="M46.12 100.62C43.38 96.46 41.27 91.65 39.78 86.2C38.29 80.74 37.55 74.86 37.55 68.56C37.55 62.26 38.29 56.36 39.78 50.85C41.26 45.35 43.38 40.56 46.12 36.5H56.33C53.45 41.66 51.35 46.86 50.03 52.09C48.7 57.32 48.04 62.81 48.04 68.57C48.04 74.33 48.7 79.82 50.03 85.05C51.35 90.28 53.45 95.47 56.33 100.64H46.12V100.62Z" fill="#9966CB"/>
<path d="M115.73 85.68C114.13 85.68 112.72 85.38 111.48 84.79C110.25 84.2 109.13 83.51 108.12 82.74C107.12 81.96 106.18 81.27 105.31 80.65C104.44 80.03 103.55 79.72 102.64 79.72C101.41 79.72 100.41 80.2 99.66 81.16C98.91 82.12 98.48 83.42 98.39 85.07H91.75C91.84 80.73 92.83 77.47 94.73 75.27C96.62 73.08 99.06 71.98 102.03 71.98C103.63 71.98 105.04 72.29 106.28 72.91C107.52 73.53 108.62 74.21 109.6 74.96C110.58 75.72 111.51 76.4 112.37 77.02C113.24 77.64 114.13 77.94 115.04 77.94C116.32 77.94 117.34 77.46 118.09 76.5C118.84 75.54 119.24 74.24 119.29 72.59H126C125.91 76.89 124.91 80.14 123.02 82.35C121.12 84.57 118.69 85.67 115.72 85.67L115.73 85.68Z" fill="#9966CB"/>
<path d="M169.81 100.62H159.6C162.57 95.46 164.7 90.26 166 85.03C167.3 79.8 167.95 74.31 167.95 68.55C167.95 62.79 167.3 57.3 166 52.07C164.7 46.84 162.56 41.64 159.6 36.48H169.81C172.64 40.54 174.79 45.33 176.25 50.83C177.71 56.34 178.44 62.24 178.44 68.54C178.44 74.84 177.71 80.73 176.25 86.18C174.79 91.64 172.64 96.45 169.81 100.6V100.62Z" fill="#9966CB"/>
<path d="M143.01 72.83C140.77 72.83 138.74 72.32 136.91 71.29C135.08 70.26 133.63 68.86 132.56 67.08C131.49 65.3 130.95 63.31 130.95 61.12C130.95 58.93 131.49 56.94 132.56 55.16C133.63 53.38 135.08 51.96 136.91 50.91C138.74 49.86 140.77 49.33 143.01 49.33C145.25 49.33 147.27 49.85 149.07 50.91C150.87 51.96 152.31 53.38 153.39 55.16C154.47 56.94 155 58.93 155 61.12C155 63.31 154.46 65.29 153.39 67.05C152.32 68.81 150.88 70.21 149.07 71.26C147.26 72.31 145.24 72.84 143.01 72.84V72.83ZM143.01 67.56C144.2 67.56 145.27 67.28 146.23 66.7C147.19 66.12 147.94 65.36 148.49 64.4C149.04 63.44 149.31 62.35 149.31 61.11C149.31 59.87 149.04 58.77 148.49 57.79C147.94 56.81 147.19 56.04 146.23 55.49C145.27 54.94 144.2 54.67 143.01 54.67C141.82 54.67 140.68 54.94 139.72 55.49C138.76 56.04 138.01 56.79 137.46 57.75C136.91 58.71 136.64 59.83 136.64 61.11C136.64 62.39 136.91 63.44 137.46 64.4C138.01 65.36 138.76 66.13 139.72 66.7C140.68 67.27 141.78 67.56 143.01 67.56Z" fill="#9966CB"/>
<path d="M74.82 72.8C72.58 72.8 70.55 72.29 68.72 71.26C66.89 70.23 65.44 68.83 64.37 67.05C63.3 65.27 62.76 63.28 62.76 61.09C62.76 58.9 63.3 56.91 64.37 55.13C65.44 53.35 66.89 51.93 68.72 50.88C70.55 49.83 72.58 49.3 74.82 49.3C77.06 49.3 79.08 49.82 80.88 50.88C82.68 51.93 84.12 53.35 85.2 55.13C86.28 56.91 86.81 58.9 86.81 61.09C86.81 63.28 86.27 65.26 85.2 67.02C84.13 68.78 82.69 70.18 80.88 71.23C79.07 72.28 77.05 72.81 74.82 72.81V72.8ZM74.82 67.52C76.01 67.52 77.08 67.24 78.04 66.66C79 66.08 79.75 65.32 80.3 64.36C80.85 63.4 81.12 62.31 81.12 61.07C81.12 59.83 80.85 58.73 80.3 57.75C79.75 56.77 79 56 78.04 55.45C77.08 54.9 76.01 54.63 74.82 54.63C73.63 54.63 72.49 54.9 71.53 55.45C70.57 56 69.82 56.75 69.27 57.71C68.72 58.67 68.45 59.79 68.45 61.07C68.45 62.35 68.72 63.4 69.27 64.36C69.82 65.32 70.57 66.09 71.53 66.66C72.49 67.23 73.59 67.52 74.82 67.52Z" fill="#9966CB"/>
</svg>
