<svg width="513" height="500" viewBox="0 0 513 500" fill="none" xmlns="http://www.w3.org/2000/svg">
<g clip-path="url(#clip0_3_2)">
<path d="M426.338 500H86.4438C83.5484 499.674 80.6404 499.424 77.7574 499.008C60.5548 496.528 45.1556 489.813 32.0433 478.434C10.9057 460.089 0.0601573 436.765 0.0426241 408.719C-0.0300136 302.821 0.00505287 196.923 0.0451288 91.0249C0.0451288 87.0299 0.285584 83.0072 0.789038 79.0447C3.16855 60.3117 10.6978 43.833 23.4395 29.9417C41.6389 10.0991 64.3495 0.0325116 91.3256 0.0224926C201.357 -0.0175833 311.388 0.00996888 421.416 -5.01077e-05C427.275 -5.01077e-05 433.091 0.433271 438.837 1.57544C461.7 6.12406 480.228 17.6709 494.364 36.2036C504.398 49.356 510.242 64.2066 512.065 80.6378C512.353 83.2402 512.526 85.8577 512.752 88.4676V412.331C512.682 412.777 512.594 413.218 512.541 413.666C512.11 417.476 511.933 421.331 511.221 425.085C505.986 452.72 491.151 473.693 466.965 487.967C456.31 494.257 444.74 498.021 432.399 499.311C430.376 499.522 428.357 499.767 426.335 499.997L426.338 500ZM165.629 128.639C156.569 128.639 147.512 128.636 138.452 128.641C136.564 128.641 135.812 129.348 135.837 131.171C135.933 138.51 134.56 145.556 132.135 152.491C110.557 214.188 89.0538 275.913 67.528 337.627C66.2656 341.249 64.9732 344.861 63.7734 348.505C62.8541 351.298 63.6807 352.601 66.3733 352.606C79.6485 352.631 92.9236 352.628 106.199 352.606C108.393 352.603 109.573 351.636 110.241 349.557C115.489 333.239 120.751 316.926 125.966 300.6C126.312 299.52 126.733 299.114 127.937 299.117C153.443 299.159 178.949 299.157 204.455 299.124C205.547 299.124 206.043 299.407 206.406 300.477C211.977 316.911 217.6 333.324 223.206 349.745C224.072 352.288 224.733 352.781 227.371 352.781C241.816 352.781 256.258 352.781 270.703 352.781C273.759 352.781 274.47 351.757 273.461 348.806C273.421 348.688 273.376 348.571 273.333 348.453C247.577 276.111 221.82 203.769 196.062 131.427C195.162 128.897 194.789 128.639 192.054 128.639C183.245 128.639 174.438 128.639 165.629 128.639ZM332.66 279.497C333.287 279.497 333.813 279.497 334.341 279.497C347.323 279.497 360.303 279.49 373.285 279.497C382.8 279.505 392.318 279.455 401.834 279.582C406.252 279.642 410.668 280.346 415.077 280.264C421.829 280.141 428.575 279.612 435.32 279.207C437.163 279.096 438.228 277.949 438.366 276.01C438.789 270.019 439.29 264.028 439.54 258.029C439.971 247.732 438.794 237.62 435.603 227.779C432.637 218.637 428.347 210.178 422.205 202.774C411.182 189.487 396.499 182.957 379.795 180.427C372.298 179.292 364.724 179.332 357.184 179.918C347.063 180.705 337.339 183.072 328.355 187.986C316.81 194.301 307.508 203.052 300.221 213.975C292.908 224.941 288.467 237.042 286.155 249.959C283.177 266.61 283.865 283.104 288.339 299.437C291.395 310.591 296.527 320.673 303.959 329.524C313.484 340.873 325.502 348.425 339.669 352.686C351.311 356.187 363.226 357.117 375.304 356.874C382.868 356.721 390.385 356.177 397.856 354.973C406.037 353.653 414.037 351.736 421.719 348.535C424.174 347.513 425.141 345.93 425.131 343.371C425.083 332.768 425.113 322.168 425.106 311.565C425.106 311.024 425.086 310.476 424.988 309.947C424.848 309.193 424.499 308.915 423.658 309.271C422.01 309.967 420.324 310.589 418.621 311.14C410.558 313.752 402.19 314.827 393.831 315.859C382.244 317.291 370.79 316.968 359.554 313.208C348.733 309.587 340.575 303.119 336.072 292.432C334.349 288.339 333.209 284.098 332.665 279.492L332.66 279.497Z" fill="#9966CB"/>
<path d="M165.797 167.588C173.927 197.469 183.738 226.832 193.091 256.494H139.026C139.073 256.228 139.091 255.983 139.164 255.752C142.811 244.098 146.52 232.461 150.094 220.783C154.415 206.672 158.663 192.537 162.854 178.386C163.788 175.235 164.344 171.971 165.078 168.76C165.168 168.369 165.291 167.986 165.398 167.6C165.531 167.595 165.661 167.59 165.794 167.585L165.797 167.588Z" fill="#9966CB"/>
<path d="M332.62 248.238C333.006 244.521 333.888 241.064 335.133 237.693C338.454 228.703 344.24 221.963 353.347 218.584C364.255 214.537 378.793 215.982 387.539 226.088C392.298 231.589 394.866 237.958 394.756 245.32C394.743 246.104 394.468 246.515 393.804 246.873C391.422 248.155 388.812 248.2 386.239 248.21C368.674 248.273 351.105 248.275 333.54 248.296C333.297 248.296 333.051 248.265 332.62 248.238Z" fill="#9966CB"/>
</g>
<defs>
<clipPath id="clip0_3_2">
<rect width="512.752" height="500" fill="white"/>
</clipPath>
</defs>
</svg>
