<svg width="500" height="500" viewBox="0 0 500 500" fill="none" xmlns="http://www.w3.org/2000/svg">
<g clip-path="url(#clip0_3_6)">
<path d="M249.843 3.26358e-05C387.88 -0.0698242 500.629 112.015 499.983 251.013C499.354 389.12 388.422 498.254 253.842 499.983C111.23 501.816 -0.209275 387.426 0.000295098 249.738C0.209865 111.404 111.841 0.331852 249.843 3.26358e-05ZM95.1278 250.018C95.1278 265.299 95.1977 280.58 95.0929 295.861C95.0579 301.677 97.6601 306.008 102.236 309.064C124.083 323.629 146.036 338.037 167.919 352.567C192.578 368.949 217.203 385.348 241.757 401.886C247.433 405.711 252.672 405.798 258.278 401.939C269.054 394.551 279.899 387.286 290.779 380.056C313.727 364.792 336.728 349.598 359.71 334.37C372.529 325.882 385.365 317.394 398.132 308.837C402.375 305.99 404.803 302.026 404.803 296.769C404.803 265.491 404.803 234.195 404.786 202.917C404.786 197.974 402.358 194.254 398.498 191.547C392.683 187.461 386.693 183.636 380.755 179.724C361.527 166.993 342.264 154.296 323.088 141.512C301.24 126.947 279.48 112.295 257.65 97.7122C252.987 94.6036 248.062 94.3766 243.242 97.2582C239.138 99.7206 235.208 102.48 231.209 105.135C208.715 120.049 186.204 134.928 163.762 149.93C143.731 163.308 123.874 176.982 103.703 190.15C97.5204 194.184 94.9008 199.144 95.023 206.392C95.285 220.94 95.0929 235.487 95.1103 250.052L95.1278 250.018Z" fill="#9966CB"/>
<path d="M236.57 165.229C236.57 173.943 236.762 182.676 236.43 191.39C236.343 193.521 235.103 196.402 233.444 197.538C218.39 207.876 203.179 217.988 187.915 228.013C176.581 235.47 181.069 234.859 169.752 227.611C158.4 220.346 147.346 212.644 136.081 205.274C132.78 203.109 134.597 201.781 136.518 200.489C145.756 194.237 155.047 188.072 164.321 181.855C180.196 171.202 196.053 160.548 211.928 149.913C218.792 145.32 225.672 140.744 232.606 136.256C233.462 135.697 235.016 135.208 235.679 135.61C236.361 136.011 236.57 137.583 236.57 138.631C236.64 147.503 236.605 156.357 236.605 165.229H236.57Z" fill="#9966CB"/>
<path d="M235.836 365.788C201.572 342.944 167.726 320.381 133.182 297.345C137.321 294.289 140.761 291.53 144.411 289.085C154.401 282.379 164.548 275.899 174.467 269.106C177.838 266.8 180.457 266.8 183.898 269.158C197.171 278.257 210.671 287.024 224.048 295.948C227.541 298.271 231.086 300.559 234.335 303.213C235.505 304.156 236.465 306.112 236.465 307.614C236.622 326.371 236.605 345.127 236.587 363.884C236.587 364.268 236.291 364.652 235.819 365.788H235.836Z" fill="#9966CB"/>
<path d="M366.783 297.415C332.641 320.189 299.022 342.595 264.618 365.543C264.233 363.36 263.779 361.928 263.779 360.496C263.727 343.189 263.779 325.864 263.709 308.557C263.709 305.519 264.74 303.598 267.412 301.851C283.985 290.901 300.384 279.689 316.87 268.599C319.298 266.958 321.708 266.381 324.485 268.268C337.443 277.087 350.489 285.767 363.5 294.534C364.443 295.162 365.229 296.036 366.818 297.433L366.783 297.415Z" fill="#9966CB"/>
<path d="M263.744 165.753C263.744 156.881 263.709 148.027 263.797 139.155C263.797 137.967 264.513 136.797 264.88 135.609C265.997 136.064 267.237 136.36 268.233 137.007C285.278 148.254 302.323 159.518 319.333 170.835C333.811 180.458 348.254 190.115 362.679 199.825C366.504 202.393 366.399 203.388 362.627 205.903C349.843 214.425 337.042 222.93 324.363 231.61C321.586 233.514 319.717 233.199 317.01 231.348C303.964 222.441 290.727 213.814 277.559 205.065C273.821 202.585 269.892 200.297 266.504 197.398C264.984 196.105 263.902 193.503 263.832 191.46C263.535 182.903 263.709 174.31 263.709 165.735L263.744 165.753Z" fill="#9966CB"/>
<path d="M203.406 250.122C208.645 246.507 213.185 243.294 217.831 240.185C227.593 233.636 237.426 227.244 247.118 220.59C249.284 219.106 250.768 219.053 252.934 220.503C266.119 229.445 279.392 238.264 292.665 247.118C295.878 249.249 296.018 250.681 292.717 252.899C279.357 261.858 265.98 270.765 252.48 279.532C251.31 280.283 248.865 280.458 247.782 279.742C233.269 270.224 218.896 260.496 203.44 250.122H203.406Z" fill="#9966CB"/>
<path d="M345.459 249.721C356.444 242.403 366.591 235.662 377.506 228.397C377.785 230.754 378.047 231.977 378.047 233.182C378.082 244.202 378.1 255.239 378.047 266.259C378.047 267.482 377.523 268.687 377.244 269.909C375.934 269.56 374.415 269.525 373.332 268.826C365.072 263.465 356.898 257.999 348.708 252.515C347.817 251.921 347.048 251.1 345.459 249.721Z" fill="#9966CB"/>
<path d="M122.983 228.589C133.968 235.976 143.94 242.7 154.855 250.052C143.818 257.457 133.828 264.163 122.983 271.446V228.606V228.589Z" fill="#9966CB"/>
</g>
<defs>
<clipPath id="clip0_3_6">
<rect width="499.983" height="500" fill="white"/>
</clipPath>
</defs>
</svg>
