<svg width="530" height="500" viewBox="0 0 530 500" fill="none" xmlns="http://www.w3.org/2000/svg">
<g clip-path="url(#clip0_3_66)">
<path d="M510.011 157.468C458.874 36.2554 316.829 -27.5974 185.877 11.3636C74.1342 44.9134 2.61124e-05 139.881 2.61124e-05 252.706C-0.811662 292.208 10.0108 332.251 31.6559 368.777C111.201 504.058 298.431 541.667 425.054 447.781C520.292 377.165 554.113 261.634 510.011 157.197V157.468ZM79.0044 350.649C24.8918 265.152 46.8074 156.115 128.788 91.9913C215.639 24.0801 346.32 33.2792 422.619 112.825C509.199 202.652 493.236 344.426 389.069 413.42C351.19 438.582 309.524 451.028 253.517 451.299C185.335 448.864 121.212 418.019 78.7338 350.649H79.0044Z" fill="#9966CB"/>
<path d="M395.292 272.186C407.197 193.723 360.931 126.623 285.173 116.342C255.411 112.284 224.567 114.989 194.264 113.907C179.654 113.366 175.054 119.048 175.054 133.117C175.595 172.349 175.054 211.58 175.054 250.812C175.054 289.502 175.595 328.193 175.054 367.154C174.783 381.764 179.112 388.258 194.535 387.716C217.532 386.634 240.53 387.716 263.528 387.175C334.686 386.093 384.199 342.532 394.751 272.457L395.292 272.186ZM221.861 248.918C221.861 223.214 221.861 197.781 221.861 172.078C221.861 161.797 225.92 157.468 236.201 158.279C256.764 159.903 277.597 159.903 297.89 163.149C317.641 166.396 332.522 178.842 342.262 196.158C360.66 229.708 363.636 264.069 345.238 298.701C332.251 323.052 311.959 337.662 284.361 340.368C267.316 341.991 250 341.45 232.684 341.721C223.485 341.721 222.132 336.039 222.132 328.463C222.132 301.948 222.132 275.433 222.132 248.918H221.861Z" fill="#9966CB"/>
</g>
<defs>
<clipPath id="clip0_3_66">
<rect width="529.221" height="500" fill="white"/>
</clipPath>
</defs>
</svg>
