<svg width="501" height="500" viewBox="0 0 501 500" fill="none" xmlns="http://www.w3.org/2000/svg">
<g clip-path="url(#clip0_3_21)">
<path d="M250.303 5.97041e-07C387.904 -0.0781152 500.225 112.106 500.078 250.312C499.922 387.953 387.738 500.244 249.648 500C111.95 499.756 -0.361271 387.562 1.47197e-05 249.268C0.361301 111.852 112.272 -0.234347 250.303 5.97041e-07ZM260.878 300.16C261.112 300.053 261.356 299.936 261.59 299.828C263.036 300.971 264.432 302.201 265.936 303.255C286.441 317.678 308.577 320.617 331.865 311.555C360.114 300.57 377.524 271.365 372.837 240.06C370.113 221.869 361.003 207.251 346.2 196.247C343.719 194.401 343.71 194.313 346.112 192.536C370.669 174.316 379.711 144.133 369.263 115.211C360.309 90.4191 335.234 72.4329 308.763 72.3157C269.627 72.1497 230.491 72.1302 191.355 72.4134C185.037 72.4622 178.397 73.468 172.48 75.6064C145.461 85.3709 129.497 104.578 126.919 133.432C124.731 157.823 134.428 177.45 153.752 192.37C156.417 194.421 156.466 194.362 153.752 196.344C132.24 212.055 121.958 239.591 128.217 265.194C132.123 281.188 140.765 294.116 154.093 303.851C156.32 305.482 156.329 305.697 154.201 307.278C129.311 325.772 119.918 355.984 131.03 384.916C139.818 407.804 157.052 421.552 180.975 426.552C193.678 429.207 206.157 427.587 218.324 422.958C242.696 413.682 260.497 388.841 260.809 362.809C261.044 342.88 260.878 322.941 260.897 303.011C260.897 302.064 260.897 301.127 260.897 300.18L260.878 300.16Z" fill="#9966CB"/>
<path d="M239.2 250.137C239.2 263.963 239.152 277.79 239.249 291.616C239.269 294.028 238.634 294.858 236.115 294.839C222.044 294.721 207.964 295.005 193.903 294.731C174.599 294.35 160.391 285.543 152.111 267.928C142.132 246.7 152.179 219.73 173.466 209.8C180.008 206.743 186.814 205.23 193.962 205.201C208.032 205.152 222.103 205.23 236.173 205.142C238.488 205.122 239.269 205.796 239.249 208.169C239.152 222.162 239.2 236.144 239.2 250.137Z" fill="#9966CB"/>
<path d="M239.2 138.861C239.2 152.687 239.152 166.514 239.249 180.34C239.269 182.732 238.693 183.582 236.144 183.562C221.908 183.445 207.681 183.562 193.444 183.494C172.646 183.406 155.236 170.068 149.709 150.1C143.626 128.129 156.525 103.943 178.143 96.6C183.367 94.8228 188.708 93.9831 194.176 93.9538C208.169 93.8757 222.152 93.9831 236.144 93.8659C238.703 93.8464 239.269 94.774 239.259 97.137C239.171 111.042 239.21 124.956 239.21 138.861H239.2Z" fill="#9966CB"/>
<path d="M260.878 138.646C260.878 124.819 260.878 110.993 260.878 97.1663C260.878 93.9343 260.897 93.9148 264.158 93.9148C278.063 93.9148 291.978 93.7097 305.882 93.9636C325.372 94.3249 339.745 103.113 348.045 120.972C358.64 143.762 346.17 172.558 322.404 180.711C316.965 182.576 311.419 183.523 305.677 183.514C291.772 183.484 277.858 183.445 263.953 183.562C261.444 183.582 260.8 182.801 260.819 180.369C260.926 166.465 260.868 152.56 260.868 138.646H260.878Z" fill="#9966CB"/>
<path d="M213.374 316.467C221.107 316.467 228.84 316.516 236.564 316.428C238.556 316.408 239.249 317.033 239.24 319.074C239.171 332.822 239.318 346.58 239.171 360.329C238.956 380.727 226.311 397.912 206.656 403.927C182.391 411.368 157.286 397.58 150.256 374.067C143.235 350.594 156.046 326.134 179.452 318.664C183.797 317.277 188.533 316.789 193.122 316.555C199.859 316.213 206.626 316.467 213.383 316.467H213.374Z" fill="#9966CB"/>
<path d="M351.717 250.078C351.658 275.046 331.563 294.819 306.273 294.78C281.149 294.741 260.829 274.636 260.897 249.893C260.965 225.11 281.324 205.142 306.458 205.201C331.748 205.249 351.765 225.11 351.717 250.078Z" fill="#9966CB"/>
</g>
<defs>
<clipPath id="clip0_3_21">
<rect width="500.068" height="500" fill="white"/>
</clipPath>
</defs>
</svg>
