<?xml version="1.0" encoding="UTF-8"?><svg id="Layer_1" xmlns="http://www.w3.org/2000/svg" viewBox="0 0 42.01 42.01"><path d="M4.67.03l32.41-.03c2.65.2,4.71,2.28,4.92,4.92v32.07c-.18,2.72-2.21,4.79-4.92,5.01H5.01c-2.71-.18-4.79-2.22-5.01-4.92V4.83C.24,2.34,2.18.31,4.67.03ZM40.5,20.25V4.74c0-1.32-1.91-3.23-3.23-3.23h-15.52v6.23c0,.56-1.3.54-1.68.66-2.73.82-2.73,4.86,0,5.72.38.12,1.69.09,1.69.66v5.48h4.59c.86-4.96,7.95-4.97,8.81,0h5.34ZM6.85,21.75H1.5v15.52c0,1.32,1.91,3.23,3.23,3.23h15.52v-6.23c0-.57,1.3-.54,1.69-.66,2.73-.86,2.71-4.9,0-5.72-.38-.12-1.68-.1-1.68-.66v-5.48h-4.59c-.86,4.96-7.95,4.97-8.81,0Z"/></svg>