<svg width="441" height="500" viewBox="0 0 441 500" fill="none" xmlns="http://www.w3.org/2000/svg">
<g clip-path="url(#clip0_4_69)">
<path d="M5.2744 0H434.991C439.491 2.34418 440.663 6.04881 440.182 10.9674C438.842 24.2371 437.9 37.5487 436.707 50.8184C432.626 96.3414 428.461 141.844 424.379 187.367C420.633 229.331 416.991 271.296 413.245 313.261C409.477 355.54 405.605 397.819 401.838 440.098C401.147 447.863 398.007 451.986 390.514 454.058C336.975 468.919 283.436 483.737 229.918 498.577C223.157 500.46 216.459 500.481 209.72 498.556C202.06 496.358 194.378 494.307 186.718 492.172C141.174 479.509 95.6298 466.847 50.0858 454.184C42.4254 452.049 39.0975 448.261 38.4487 441.061C35.2464 405.584 32.0231 370.108 28.8627 334.631C24.1534 281.657 19.5278 228.662 14.8185 175.688C9.96275 120.788 5.08603 65.8671 0.0837264 10.9674C-0.355806 6.04881 0.774421 2.34418 5.2744 0ZM353.594 147.537C355.038 131.399 356.524 116.037 357.759 100.632C358.156 95.6298 355.833 93.1391 350.831 92.4275C348.905 92.1554 346.938 92.1763 344.991 92.1763C261.648 92.1763 178.325 92.1763 94.981 92.1763C93.5159 92.1763 92.0507 92.1135 90.5856 92.2182C84.181 92.6996 81.8159 95.1903 82.3182 101.616C83.3647 115.074 84.5787 128.532 85.7717 141.969C88.8694 176.65 92.0507 211.311 95.0438 245.992C96.0065 257.169 98.3507 259.659 109.444 259.659C165.264 259.659 221.106 259.659 276.927 259.659C285.32 259.659 287.873 262.778 287.078 271.15C285.487 287.496 284.064 303.864 282.641 320.252C281.971 328.059 278.873 332.036 271.296 334.108C255.159 338.524 239.001 342.919 222.822 347.189C221.022 347.67 218.908 347.712 217.108 347.231C200.615 342.898 184.143 338.419 167.692 333.919C161.539 332.245 158.043 328.185 157.457 321.759C156.725 313.659 156.118 305.538 155.197 297.459C154.339 289.987 151.116 287.224 143.602 287.182C132.362 287.12 121.144 287.141 109.904 287.182C101.679 287.203 99.1251 289.945 99.8368 298.296C101.7 320.168 103.667 342.061 105.676 363.912C106.346 371.259 109.527 374.942 116.748 376.952C149.776 386.119 182.804 395.287 215.894 404.307C218.385 404.998 221.399 404.998 223.89 404.307C241.157 399.724 258.362 394.889 275.587 390.117C291.557 385.701 307.547 381.305 323.496 376.847C329.064 375.298 333.668 373.038 334.212 366.047C335.719 346.415 337.561 326.824 339.298 307.213C341.998 276.738 344.657 246.285 347.482 215.832C348.34 206.476 346.457 204.153 336.933 204.153C282.578 204.153 228.201 204.153 173.846 204.153C167.818 204.153 161.79 204.257 155.783 204.09C150.53 203.943 146.825 201.18 146.281 196.053C144.857 182.469 143.79 168.843 142.806 155.218C142.492 150.76 145.318 148.353 149.525 147.662C151.283 147.369 153.104 147.474 154.883 147.474C219.013 147.474 283.143 147.474 347.273 147.474C349.198 147.474 351.124 147.474 353.573 147.474L353.594 147.537Z" fill="#9966CB"/>
</g>
<defs>
<clipPath id="clip0_4_69">
<rect width="440.286" height="500" fill="white"/>
</clipPath>
</defs>
</svg>
