<?xml version="1.0" encoding="UTF-8"?><svg id="Layer_1" xmlns="http://www.w3.org/2000/svg" viewBox="0 0 45.01 37.51"><path d="M3.26.03l38.23-.03c1.9.16,3.37,1.61,3.52,3.52v30.48c-.16,1.9-1.61,3.37-3.52,3.52H3.52c-1.9-.16-3.37-1.61-3.52-3.52V3.52C.14,1.71,1.48.29,3.26.03ZM43.5,27V3.33c0-.7-1.26-1.86-2.02-1.83H3.7c-.82-.14-2.2,1.08-2.2,1.83v23.67h42ZM32.08,31.49c-.76-2.02-3.42-1.94-4.2.02H4.45c-.95.09-.95,1.4,0,1.5h23.42c.84,2,3.42,2,4.25,0h8.42c.9-.04.96-1.35.09-1.49l-8.56-.02Z"/><path d="M31.59,10.51c-6.48-.29-11.33,4.08-12.08,10.44-.07.57.21,1.51-.71,1.55-.98.04-.72-.88-.8-1.46-.65-5.09-3.94-8.42-9.05-9.05-.55-.07-1.42.19-1.46-.71s.9-.83,1.55-.79c4.22.23,8.07,3.18,9.66,7.03,1.83-5.33,7.25-8.89,12.88-8.54.85-4.24,7.19-3.79,7.42.52.25,4.62-6.44,5.51-7.42,1Z"/><path d="M29.79,31.52c1.1-.24,1.29,1.27.43,1.46-1.1.24-1.29-1.27-.43-1.46Z"/></svg>