<?xml version="1.0" encoding="UTF-8"?><svg id="Layer_1" xmlns="http://www.w3.org/2000/svg" viewBox="0 0 336.21 384"><path d="M237.94,0c1.2,1.31,2.91,1.61,4.17,2.96,7.12,7.66-1.23,31.68-4.35,40.73-4.33,12.52-10.04,24.57-15.56,36.56h88.12c12.93,0,25.92,13.63,25.9,26.6l-.04,206.26c.45,9.74-12.43,25.14-22.11,25.14h-109.88l11.61,33.01c1.78,2.15,21.02-.56,25.69,1.31,5.07,2.02,4.1,9.24-.56,11.43H95.44c-4.65-2.19-5.63-9.41-.56-11.43,4.67-1.86,23.91.84,25.69-1.31l11.61-33.01H22.31c-9.68,0-22.56-15.4-22.11-25.14.7-70.82-1.48-142,1.11-212.62,3.37-12.36,13.79-19.22,26.27-20.23l137.87-.13c12.22-20.43,25.06-40.95,41.01-58.74,7.32-8.16,16.01-17.24,26.23-21.39h5.25ZM161.5,122.15l13.07,7.59c21.26-24.78,37.31-51.74,48.93-82.3,4.09-10.76,8.58-22.42,9.18-33.94-11.19,7.73-20.49,19.33-28.79,30.08-18.48,23.93-32.99,49.7-42.39,78.57ZM159.94,92.25H26.06c-.39,0-4.82,1.58-5.55,1.95-5.36,2.69-8.36,8.21-8.35,14.15l.03,204.04c.92,7.26,5.75,12.87,13.13,13.87l285.03.03c8.15-.73,13.15-6.67,13.88-14.62V107.6c-.42-8.89-6.81-14.49-15.41-15.34l-90.78-.04-2.61,1.14-8.22,13.9h96.38c1.72,0,4.84,4.29,4.16,6.34l-.6,195.22c-1.15,2.2-3.26,3.34-5.77,3.23l-267.74-.08c-3.19-.5-5.09-3.13-4.95-6.3V113.59c-.11-2.51,1.01-4.62,3.23-5.77l120.94-.56c2.85-.53,6-12.07,7.12-15ZM146.44,119.25H40.69v180.75h255V119.25h-98.25c-.04.68-.26,1.35-.73,1.86-1.84,1.99-12.57,14.76-13.16,16.16-.44,1.03.84,5.95.04,9-1.35,5.18-8.72,12.16-9.24,14-1.03,3.58-.6,9.08-1.7,13.3-4.56,17.61-22.11,17.91-35.71,24.29-6.79,3.18-12.02,10.46-19.72,5.72-4.53-2.78-4.93-8.61-5.27-13.48-1.12-15.84,2.76-33.39,14.98-44.25,1.41-1.26,7.52-5,7.88-5.62.75-1.29.2-3.6.7-5.3,1.16-3.95,3.64-7.32,5.67-10.83l5.25-4.88ZM168.12,149.96c.33-2.33,4.77-6.26,3.49-8.23-.59-.89-16.61-10.07-18.46-10.83-.68-.28-1.41-.73-2.12-.31l-3.84,8.15,20.94,11.22ZM123.94,178.88c-.36,3.71.26,7.86,0,11.62,3.15-.47,5.94-2.81,9.01-4.11,7.91-3.35,23.69-5.8,27.37-13.88.99-2.18,2.87-10.42,1.38-12.08-.66-.73-15.54-9.3-16.98-9.85-4.79-1.83-12.64,6.77-15.1,10.73-2.83,4.55-5.18,12.26-5.69,17.56ZM132.94,372h70.5l-12.1-33.65-45.3-.15-13.1,33.8Z"/><path d="M132,217.64c5.14-1,8.49,4.28,6.54,8.85-1.47,3.45-17.59,11.42-20.97,15.02-.52.55-1.37.89-1.13,1.86l21.65,17.36c3.35,6.02-2.5,11.53-8.44,8.43-3.14-1.64-11.64-9.17-15.06-11.94-2.33-1.88-13.61-10.44-14.26-11.98-1.03-2.42-.52-5.71,1.48-7.49l30.19-20.11Z"/><path d="M201.74,217.63c2.52-.51,3.65.44,5.67,1.52,5.49,2.92,22.28,14.21,26.73,18.27,4.91,4.48,1.98,8.08-1.85,11.56-7.64,6.94-17.54,12.69-25.14,19.86-5.74,3.73-12.48-1.88-8.88-8.13l21.66-18.06c-.43-1.97-19.08-11.95-21.34-15.42-2.27-3.48-1.11-8.73,3.15-9.59Z"/><path d="M174.74,208.63c3.15-.65,6.69,1.45,7,4.71-3.67,20.76-10.57,41.07-15.76,61.57-3.54,7.33-12.23,4.85-11.09-4.35,2.21-17.89,12.32-39.15,15.32-57.42.48-1.97,2.54-4.1,4.53-4.52Z"/></svg>