<?xml version="1.0" encoding="UTF-8"?><svg id="Layer_1" xmlns="http://www.w3.org/2000/svg" viewBox="0 0 40.51 40.51"><path d="M1.85.03l36.54-.03c1.11.09,2.02,1,2.11,2.11v36.29c-.09,1.11-1,2.02-2.11,2.11H2.11c-1.11-.09-2.02-1-2.11-2.11V2.11C.08,1.08.86.25,1.85.03ZM14.16,1.5H2.02c-.11,0-.52.41-.52.52v3.98h12.09l.56-4.5ZM39,6v-3.98c0-.21-.54-.6-.79-.52H15.71s-.62,4.5-.62,4.5h23.91ZM19.5,7.5H1.5v30.98c0,.11.41.52.52.52h17.48V7.5ZM39,7.5h-18v31.5h17.48c.11,0,.52-.41.52-.52V7.5Z"/><path d="M11.42,11.08c.62-.14,1.08.32.94.94l-2.27,9.07c-.38.88-1.67.45-1.43-.49l2.41-9.31c.1-.1.22-.18.35-.21Z"/><path d="M7.01,13.53c.89.97-1.5,2.11-2.03,2.74.38.72,3,1.86,2.04,2.83-.5.5-1.02.05-1.42-.26-.57-.43-1.84-1.43-2.3-1.92-.35-.37-.41-.78-.04-1.18.31-.33,2.49-2.16,2.83-2.33.31-.16.69-.16.94.11Z"/><path d="M14,19.1c-.93-.94,1.57-2.12,2.03-2.75-.38-.76-2.97-1.79-2.03-2.82.48-.53,1-.05,1.42.25.58.43,1.83,1.42,2.3,1.92.39.41.39.81,0,1.23-.33.35-2.42,2.1-2.78,2.28-.3.15-.71.13-.95-.11Z"/><path d="M8.04,24.96c1.25.1,2.9-.2,4.1-.01.83.13.83,1.36,0,1.49-.64.1-3.38.1-4.02,0-.79-.12-.84-1.25-.08-1.47Z"/><path d="M3.54,29.46c1.25.1,2.9-.2,4.1-.01.83.13.83,1.36,0,1.49-.64.1-3.38.1-4.02,0-.79-.12-.84-1.25-.08-1.47Z"/><path d="M13.29,33.96c1.25.1,2.9-.2,4.1-.01.83.13.83,1.36,0,1.49-.64.1-3.38.1-4.02,0-.79-.12-.84-1.25-.08-1.47Z"/><path d="M14.79,24.96c.33-.07,2.35-.07,2.68,0,.74.17.73,1.35-.08,1.47-.4.06-2.23.07-2.6-.01-.72-.16-.72-1.3,0-1.46Z"/><path d="M10.29,29.46c.33-.07,2.35-.07,2.68,0,.74.17.73,1.35-.08,1.47-.4.06-2.23.07-2.6-.01-.72-.16-.72-1.3,0-1.46Z"/><path d="M3.54,33.96c.33-.07,2.35-.07,2.68,0,.74.17.73,1.35-.08,1.47-.4.06-2.23.07-2.6-.01-.72-.16-.72-1.3,0-1.46Z"/><path d="M3.54,24.96c.29-.06,1.73-.06,2,.02.67.21.63,1.33-.15,1.45-.32.05-1.64.05-1.92-.04-.65-.2-.62-1.28.07-1.44Z"/><path d="M15.54,29.46c.29-.06,1.73-.06,2,.02.67.21.63,1.33-.15,1.45-.32.05-1.64.05-1.92-.04-.65-.2-.62-1.28.07-1.44Z"/><path d="M8.79,33.96c.29-.06,1.73-.06,2,.02.67.21.63,1.33-.15,1.45-.32.05-1.64.05-1.92-.04-.65-.2-.62-1.28.07-1.44Z"/><path d="M23.79,9.77l12.57.05c.24.13.39.36.4.63-.14,1.94.18,4.1,0,6.01-.05.56-.24.75-.8.8-3.78.34-8.08-.27-11.92,0-.43.02-.78-.27-.79-.71.14-1.94-.17-4.1,0-6.01.04-.4.13-.65.54-.77ZM35.25,11.25h-10.5v4.5h10.5v-4.5Z"/><path d="M23.79,19.52l12.57.05c.24.13.39.36.4.63-.14,1.94.18,4.1,0,6.01-.05.56-.24.75-.8.8-3.78.34-8.08-.27-11.92,0-.43.02-.78-.27-.79-.71.14-1.94-.17-4.1,0-6.01.04-.4.13-.65.54-.77ZM35.25,21h-10.5v4.5h10.5v-4.5Z"/><path d="M23.79,29.27c1.5.09,3.3-.19,4.76-.02.5.06.66.31.71.79.13,1.47.13,4.45,0,5.92-.04.48-.2.74-.71.79-1.02.12-3.46.1-4.51,0-.55-.05-.75-.24-.8-.8-.17-1.91.14-4.07,0-6.01,0-.32.23-.6.54-.68ZM27.75,30.75h-3v4.5h3v-4.5Z"/><path d="M31.29,29.27c1.5.09,3.3-.19,4.76-.02.5.06.66.31.71.79.13,1.47.13,4.45,0,5.92-.04.48-.2.74-.71.79-1.02.12-3.46.1-4.51,0-.55-.05-.75-.24-.8-.8-.17-1.91.14-4.07,0-6.01,0-.32.23-.6.54-.68ZM35.25,30.75h-3v4.5h3v-4.5Z"/><path d="M3.54,3.02c1.1-.24,1.29,1.27.43,1.46-1.1.24-1.29-1.27-.43-1.46Z"/><path d="M7.29,3.02c1.1-.24,1.29,1.27.43,1.46-1.1.24-1.29-1.27-.43-1.46Z"/><path d="M11.04,3.02c1.1-.24,1.29,1.27.43,1.46-1.1.24-1.29-1.27-.43-1.46Z"/></svg>