<svg width="500" height="500" viewBox="0 0 500 500" fill="none" xmlns="http://www.w3.org/2000/svg">
<g clip-path="url(#clip0_3_48)">
<path d="M500 440C500 473.137 473.137 500 440 500H60C26.8629 500 0 473.137 0 440V60C0 26.8629 26.8629 0 60 0H440C473.137 0 500 26.8629 500 60V440ZM99.2144 356.394C99.2106 356.392 99.212 356.387 99.2162 356.387C111.378 356.387 122.916 356.231 134.443 356.475C138.037 356.553 139.463 355.43 140.361 351.953C145.703 331.172 151.396 310.488 156.709 289.707C157.646 286.055 159.004 284.795 162.861 284.834C184.023 285.039 205.176 284.932 226.338 284.932V284.932C229.097 284.932 231.528 286.781 232.239 289.447C232.307 289.704 232.375 289.959 232.441 290.215C237.881 310.967 243.271 331.729 248.838 352.451C249.238 353.936 250.908 356.191 252.021 356.221C253.688 356.251 255.355 356.276 257.023 356.297C275.939 356.537 289.543 338.169 284.141 320.039V320.039C263.242 249.961 242.314 179.893 221.514 109.785C220.518 106.436 219.17 105.127 215.527 105.264C207.07 105.566 198.604 105.361 190.137 105.361C188.292 105.361 186.448 105.361 184.606 105.361C175.472 105.361 169.221 112.497 166.709 121.279V121.279C146.855 190.82 126.787 260.293 106.777 329.785C104.278 338.485 101.827 347.204 99.2201 356.392C99.2194 356.394 99.2167 356.395 99.2144 356.394V356.394ZM372.354 190.366C372.354 179.151 363.261 170.059 352.046 170.059V170.059C340.83 170.059 331.738 179.151 331.738 190.366V335.698C331.738 346.914 340.83 356.006 352.046 356.006V356.006C363.261 356.006 372.354 346.914 372.354 335.698V190.366ZM351.514 97.4512C338.232 97.4414 327.451 107.93 327.324 120.986C327.197 134.111 338.34 145.098 351.641 144.961C364.863 144.824 375.615 134.092 375.547 121.094C375.488 107.959 364.814 97.4609 351.504 97.4512H351.514Z" fill="#9966CB"/>
<path d="M195.352 143.564C203.799 178.213 212.246 212.861 220.762 247.793H168.408C177.158 212.881 185.84 178.242 194.512 143.613C194.795 143.604 195.068 143.584 195.352 143.574V143.564Z" fill="#9966CB"/>
</g>
<defs>
<clipPath id="clip0_3_48">
<rect width="500" height="500" fill="white"/>
</clipPath>
</defs>
</svg>
