<svg width="500" height="500" viewBox="0 0 500 500" fill="none" xmlns="http://www.w3.org/2000/svg">
<g clip-path="url(#clip0_3_45)">
<path d="M440 0C473.137 0 500 26.8629 500 60V440C500 473.137 473.137 500 440 500H60C26.8629 500 0 473.137 0 440V60C0 26.8629 26.8629 0 60 0H440ZM336.3 381.663C336.298 381.661 336.299 381.657 336.303 381.657H371.593C379.668 381.657 386.214 375.111 386.214 367.036V143.097C386.214 127.015 373.177 113.978 357.095 113.978H352.848C339.112 113.978 327.976 125.114 327.976 138.851V187.261C327.976 195.831 314.919 201.097 306.92 198.021V198.021C270.177 183.924 227.531 199.709 209.262 235.025C192.146 268.118 191.46 302.542 204.897 336.939C216.99 367.904 246.198 389.59 282.791 385.83C302.707 383.784 319.123 375.357 330.611 358.433V358.433C331.624 356.962 333.956 357.723 334.132 359.501C334.9 367.277 335.598 374.398 336.306 381.66C336.307 381.664 336.302 381.666 336.3 381.663V381.663ZM141.615 381.822C157.432 381.822 170.254 369 170.254 353.183V156.027C170.254 140.21 157.432 127.388 141.615 127.388V127.388C125.798 127.388 112.976 140.21 112.976 156.027V353.183C112.976 369 125.798 381.822 141.615 381.822V381.822Z" fill="#9966CB"/>
<path d="M329.101 288.253C328.113 297.258 328.044 306.495 325.917 315.211C322.54 329.046 313.207 337.831 298.891 339.917C283.93 342.099 271.563 336.98 263.259 324.05C249.41 302.473 251.62 266.196 267.638 248.435C277.657 237.331 290.299 234.559 304.093 238.731C317.627 242.821 325.244 252.965 327.413 266.718C328.511 273.745 328.223 280.979 328.552 288.13L329.115 288.24L329.101 288.253Z" fill="#9966CB"/>
</g>
<defs>
<clipPath id="clip0_3_45">
<rect width="500" height="500" fill="white"/>
</clipPath>
</defs>
</svg>
