<?xml version="1.0" encoding="UTF-8"?><svg id="Layer_1" xmlns="http://www.w3.org/2000/svg" viewBox="0 0 500 500"><defs><style>.cls-1{fill:#9a66cb;}</style></defs><path class="cls-1" d="M434.57,0c26.19,4.67,48.97,20.78,59.43,45.55,2.87,6.79,4.45,13.7,6,20.86v367.19c-1.55,6.88-2.98,13.62-5.68,20.2-7.42,18.05-23.73,34.01-41.91,41.1-6.14,2.4-12.44,3.62-18.81,5.11H66.41c-7.16-1.55-14.07-3.13-20.86-6-24.74-10.45-40.81-33.27-45.55-59.43V65.43C4.65,33.4,32.7,3.51,65.43,0h369.14ZM418.6,80.42c-12.03-11.81-28.36-18.89-45.08-20.83l-246.12-.05c-35.54,3-64.3,31.47-67.82,66.95l-.05,246.12c3.02,35.83,32.02,64.94,67.92,67.82l244.17.05c37.52-2.89,66.5-32.19,68.85-69.82l-.06-243.2c-1.3-17.04-9.69-35.13-21.81-47.03Z"/><path class="cls-1" d="M127.71,89.14l242.88-.25c22.23,2.18,38.84,19.15,40.58,41.45v239.33c-1.99,22.71-18.62,39.72-41.5,41.5h-239.33c-22.71-1.99-39.72-18.62-41.5-41.5l.05-240.25c1.99-21.15,17.81-37.54,38.83-40.27ZM348.39,118.42c-36.97,4.85-31.08,62.2,7.46,58.23,38.02-3.91,32.16-63.42-7.46-58.23ZM241.01,147.75c-62.86,5.15-105.8,66.79-90.35,127.85,22.05,87.1,139.19,104.89,186.65,28.03,44.36-71.85-12.83-162.71-96.3-155.88Z"/><path class="cls-1" d="M301.42,197.61c66.03,64.82-26.68,167.46-97.33,109.53-79.24-64.98,25.7-179.85,97.33-109.53Z"/></svg>