<svg width="500" height="500" viewBox="0 0 500 500" fill="none" xmlns="http://www.w3.org/2000/svg">
<g clip-path="url(#clip0_3_53)">
<path fill-rule="evenodd" clip-rule="evenodd" d="M383.2 460.8C349.853 460.8 325.518 448.646 309.762 430.77C301.692 421.615 305.881 408.019 316.442 401.904V401.904C327.251 395.644 340.538 399.849 350.042 407.954C358.179 414.893 368.399 419.175 382.2 419.175C401.65 419.175 414.075 409.45 414.075 396.025C414.075 375.825 387.125 367.925 368.1 359.775C334.2 345.35 311.7 327.225 311.7 288.95C311.7 253.725 338.55 226.875 380.525 226.875C403.321 226.875 421.247 232.94 435.317 247.911C443.179 256.276 439.74 269.308 430.081 275.514V275.514C419.591 282.253 406.451 277.038 395.45 271.17C391.121 268.862 386.251 267.825 380.525 267.825C366.75 267.825 358.025 276.55 358.025 287.95C358.025 302.05 366.75 307.75 386.9 316.475C429.125 334.575 461.075 348.8 461.075 395.35C461.075 437.65 427.85 460.8 383.2 460.8ZM275 389.975C275 438.65 245.025 464.375 203.4 464.375C165.851 464.375 143.336 450.039 132.245 425.102C132.218 425.04 132.157 425 132.089 425V425C131.923 425 131.856 424.786 131.992 424.691L159.93 405.158C165.207 401.469 172.318 403.276 176.167 408.438C181.73 415.899 188.407 420.625 199.9 420.625C215.35 420.625 225 412.8 225 389.325V250C225 236.193 236.193 225 250 225V225C263.807 225 275 236.193 275 250V389.975ZM0 440C0 473.137 26.8629 500 60 500H440C473.137 500 500 473.137 500 440V60C500 26.8629 473.137 0 440 0H60C26.8629 0 0 26.8629 0 60V440Z" fill="#9966CB"/>
</g>
<defs>
<clipPath id="clip0_3_53">
<rect width="500" height="500" fill="white"/>
</clipPath>
</defs>
</svg>
