<svg width="571" height="500" viewBox="0 0 571 500" fill="none" xmlns="http://www.w3.org/2000/svg">
<g clip-path="url(#clip0_3_55)">
<path d="M0 229.876C3.85765 229.028 7.73759 227.445 11.5952 227.423C57.9985 227.244 104.402 227.579 150.783 227.088C160.839 226.977 163.983 230.344 163.136 239.932C162.445 247.67 162.757 255.519 163.069 263.301C163.337 269.857 161.018 272.689 154.127 272.666C105.494 272.488 56.8836 272.622 8.25046 272.466C5.48544 272.466 2.74272 270.883 0 270.013C0 256.634 0 243.255 0 229.876Z" fill="#9966CB"/>
<path d="M570.842 270.035C566.985 270.883 563.105 272.466 559.247 272.488C512.844 272.666 466.463 272.332 420.06 272.823C410.003 272.934 406.859 269.567 407.684 259.979C408.375 252.241 408.063 244.392 407.751 236.61C407.483 230.054 409.825 227.222 416.715 227.244C465.326 227.423 513.959 227.289 562.57 227.445C565.335 227.445 568.077 229.028 570.82 229.898V270.035H570.842Z" fill="#9966CB"/>
<path d="M208.692 249.498C208.692 226.085 208.915 202.671 208.58 179.28C208.469 171.609 211.1 168.8 218.905 168.889C246.399 169.246 273.893 168.599 301.365 169.157C335.281 169.848 360.991 195.848 361.459 229.697C361.883 260.157 361.392 290.639 361.705 321.099C361.771 328.39 359.252 331.111 352.005 330.732C343.487 330.286 334.902 330.241 326.384 330.732C318.312 331.2 316.26 327.655 316.349 320.162C316.661 293.047 316.572 265.91 316.439 238.795C316.327 215.716 307.831 207.488 284.596 207.443C264.453 207.399 254.382 217.433 254.382 237.546C254.382 265.04 254.136 292.534 254.538 320.028C254.649 328.279 251.929 331.535 243.656 330.977C236.253 330.486 228.761 330.33 221.38 330.999C211.791 331.869 208.201 328.658 208.491 318.601C209.138 295.589 208.692 272.533 208.692 249.498Z" fill="#9966CB"/>
<path d="M308.634 61.477C308.634 78.1563 308.188 94.8579 308.812 111.515C309.169 120.992 305.557 124.024 296.504 123.333C288.409 122.709 280.203 122.954 272.064 123.266C265.464 123.512 262.811 121.036 262.855 114.213C263.078 79.3827 263.078 44.5301 262.855 9.69982C262.811 2.4082 265.553 -0.267621 272.711 0.0668572C281.207 0.468231 289.769 0.535126 298.265 0.0668572C306.025 -0.379113 308.857 2.69808 308.723 10.3465C308.411 27.3826 308.634 44.4409 308.634 61.4993V61.477Z" fill="#9966CB"/>
<path d="M308.634 437.475C308.634 454.154 308.143 470.856 308.812 487.513C309.214 497.525 305.423 500.714 295.879 499.911C287.785 499.242 279.579 499.576 271.44 499.822C265.219 500 262.877 497.28 262.9 491.192C263.034 455.983 263.034 420.773 262.9 385.564C262.877 379.61 264.862 377.09 271.172 376.622C308.656 373.835 308.656 373.701 308.656 410.806C308.656 419.703 308.656 428.6 308.656 437.497L308.634 437.475Z" fill="#9966CB"/>
<path d="M196.562 362.262C197.632 372.43 193.239 379.343 186.126 385.831C176.56 394.573 167.64 404.027 158.699 413.415C153.748 418.61 149.512 418.477 144.695 413.326C138.608 406.837 132.275 400.593 125.898 394.394C121.259 389.89 121.014 385.787 125.786 381.149C137.225 370.044 147.103 356.554 160.326 348.392C168.577 343.308 181.8 345.471 192.659 346.274C194.354 346.408 195.291 356.665 196.584 362.24L196.562 362.262Z" fill="#9966CB"/>
<path d="M196.807 138.206C194.755 143.959 193.217 153.971 190.719 154.194C180.574 155.175 167.886 156.558 160.282 151.518C146.992 142.688 136.467 129.51 125.496 117.513C123.601 115.439 123.69 108.861 125.541 106.565C131.561 99.1392 138.407 92.1375 145.899 86.2284C148.374 84.2884 155.332 84.3999 157.628 86.4737C169.179 96.8425 180.484 107.635 190.563 119.409C194.354 123.846 194.644 131.294 196.785 138.229L196.807 138.206Z" fill="#9966CB"/>
</g>
<defs>
<clipPath id="clip0_3_55">
<rect width="570.842" height="500" fill="white"/>
</clipPath>
</defs>
</svg>
