<svg width="500" height="500" viewBox="0 0 500 500" fill="none" xmlns="http://www.w3.org/2000/svg">
<g clip-path="url(#clip0_3_42)">
<path d="M500 81.543V418.457C499.939 419.019 499.88 419.58 499.817 420.142C499.395 423.938 499.226 427.783 498.506 431.521C493.928 455.244 481.362 473.682 461.179 486.855C449.841 494.255 437.319 498.459 423.799 499.585C421.858 499.746 419.912 499.861 417.966 499.998H80.8105C80.293 499.927 79.7754 499.836 79.2554 499.785C76.4258 499.509 73.5693 499.397 70.7666 498.95C54.5752 496.374 40.271 489.695 28.0762 478.728C12.29 464.529 3.08105 446.855 0.598145 425.73C0.324707 423.396 0.195313 421.042 0 418.699C0 305.906 0 193.113 0 80.3198C0.065918 79.8413 0.146484 79.3652 0.200195 78.8867C0.559082 75.6567 0.712891 72.3901 1.30127 69.2041C5.4541 46.7261 16.8555 28.7622 35.4126 15.4468C47.7734 6.57715 61.6211 1.57227 76.8188 0.393066C78.7183 0.244141 80.6177 0.129395 82.5195 0C194.417 0 306.316 0 418.213 0C418.613 0.0512695 419.011 0.112305 419.412 0.15625C423.369 0.588379 427.371 0.78125 431.279 1.48682C450.562 4.9707 466.645 14.2163 479.482 28.9746C490.737 41.9141 497.4 56.958 499.355 74.0332C499.641 76.5283 499.788 79.0405 499.998 81.5454L500 81.543ZM142.908 278.567C144.875 278.818 146.716 279.128 148.569 279.275C162.41 280.366 176.213 280.142 189.929 277.805C202.454 275.671 214.436 271.916 225.398 265.337C238.015 257.766 247.935 247.654 253.625 233.936C260.85 216.519 262.161 198.54 257.397 180.269C254.036 167.371 247.31 156.436 237.08 147.788C228.572 140.596 218.674 136.062 208.03 133.062C195.769 129.604 183.208 128.147 170.522 128.069C159.99 128.003 149.451 128.311 138.926 128.735C126.196 129.248 113.533 130.552 100.969 132.739C99.9561 132.915 99.6558 133.257 99.6558 134.29C99.6802 211.88 99.6777 289.47 99.6826 367.061C99.6826 367.488 99.7266 367.915 99.7485 368.315H142.905V278.564L142.908 278.567ZM384.69 233.084C384.839 232.605 384.983 232.19 385.1 231.765C387.456 223.223 389.817 214.68 392.158 206.133C392.498 204.89 393.337 203.32 392.888 202.449C392.385 201.477 390.706 201.062 389.485 200.527C376.047 194.641 361.929 192.131 347.324 192.129C336.313 192.129 325.608 193.833 315.442 198.237C304.231 203.093 295.081 210.391 288.953 221.113C283.223 231.143 281.27 241.963 282.932 253.357C284.421 263.555 289.783 271.665 297.249 278.506C303.987 284.68 311.794 289.185 320.159 292.712C325.923 295.144 331.836 297.227 337.651 299.543C342.383 301.428 346.875 303.733 351.038 306.743C361.091 314.014 361.379 332.568 346.785 338.142C341.912 340.002 336.87 340.806 331.731 340.776C316.04 340.688 301.389 336.509 287.585 329.172C287.178 328.955 286.768 328.74 286.272 328.477C283.418 339.058 280.615 349.451 277.805 359.866C278.157 360.073 278.425 360.247 278.708 360.398C288.906 365.867 299.888 368.865 311.25 370.601C322.534 372.327 333.857 372.451 345.186 371.05C354.734 369.868 363.953 367.522 372.561 363.086C379.414 359.556 385.408 354.958 390.154 348.843C397.805 338.982 400.833 327.71 400.176 315.359C399.412 300.989 393.508 289.231 382.241 280.203C374.336 273.867 365.312 269.639 355.957 265.977C349.49 263.445 343.005 260.923 336.697 258.03C333.867 256.731 331.165 254.829 328.901 252.678C321.741 245.879 322.708 233.892 330.674 228.064C335.994 224.172 342.144 223.215 348.496 223.259C359.236 223.33 369.419 225.947 379.163 230.374C381.008 231.211 382.805 232.153 384.695 233.084H384.69Z" fill="#9966CB"/>
<path d="M142.874 203.867C142.874 190.852 142.888 177.834 142.847 164.819C142.844 163.696 143.181 163.267 144.277 163.093C156.106 161.223 167.971 160.53 179.878 162.126C187.749 163.181 195.164 165.593 201.702 170.29C208.897 175.459 213.384 182.429 215.3 191.02C217.373 200.315 217.056 209.553 213.765 218.535C209.727 229.556 201.797 236.799 191.091 241.201C182.329 244.805 173.137 245.942 163.748 245.896C157.932 245.867 152.114 245.82 146.35 244.88C144.032 244.503 142.874 243.155 142.874 240.837V203.862V203.867Z" fill="#9966CB"/>
</g>
<defs>
<clipPath id="clip0_3_42">
<rect width="500" height="500" fill="white"/>
</clipPath>
</defs>
</svg>
