<?xml version="1.0" encoding="UTF-8"?><svg id="Layer_1" xmlns="http://www.w3.org/2000/svg" viewBox="0 0 45.02 39.01"><path d="M2.51.03l39.64-.03c1.31.1,2.34.89,2.73,2.14.28,11.31.04,22.68.12,34.01-.16,1.66-1.29,2.75-2.95,2.86H2.86c-1.55-.12-2.69-1.22-2.86-2.77V2.77C.14,1.37,1.14.29,2.51.03ZM4.29,3.02c-.86.19-.67,1.7.43,1.46.86-.19.67-1.7-.43-1.46ZM8.04,3.02c-.86.19-.67,1.7.43,1.46.86-.19.67-1.7-.43-1.46ZM11.79,3.02c-.86.19-.67,1.7.43,1.46.86-.19.67-1.7-.43-1.46ZM20.04,3.02c-.81.27-.69,1.41.17,1.48h20.35c.95-.09.95-1.41,0-1.5l-20.51.02ZM43.5,7.5H1.5v28.83c0,.32.73,1.13,1.12,1.13l39.83-.02c.39-.05,1.05-.76,1.05-1.11V7.5Z"/><path d="M5.6,10.53l15.54-.03c1.12.1,2.01.99,2.11,2.11.31,3.45-.24,7.38,0,10.88-.15,1.06-1.02,1.93-2.11,2.02H5.86c-1.08-.09-1.96-.95-2.11-2.02.28-3.49-.37-7.55,0-10.97.1-.97.91-1.79,1.85-1.99ZM15.17,14.27c-1.35.22-1.12,2.36.34,2.23s1.23-2.48-.34-2.23ZM10.46,16.88l-5.15,5.16c-.07.74-.32,1.96.74,1.97l15.31-.08c.42-.18.52-.83.31-1.2l-3.57-3.56c-.11-.09-.15-.01-.24.05-.62.43-2.14,2.46-2.72,2.53-.12.02-.23.01-.35-.02l-4.33-4.85Z"/><path d="M28.1,28.53l11.37.02c.9.16,1.68,1.07,1.78,1.97.18,1.68.04,3.6-1.93,3.98l-11.29-.03c-1.84-.5-1.93-2.23-1.78-3.85.09-1.04.85-1.85,1.85-2.08Z"/><path d="M4.29,28.52l18.26-.02c.95.09.95,1.41,0,1.5H4.45c-.86-.07-.97-1.21-.17-1.48Z"/><path d="M26.79,10.52l13.76-.02c.95.09.95,1.41,0,1.5h-13.6c-.86-.07-.97-1.21-.17-1.48Z"/><path d="M26.79,15.02l13.76-.02c.95.09.95,1.41,0,1.5h-13.6c-.86-.07-.97-1.21-.17-1.48Z"/><path d="M26.79,19.52l13.76-.02c.95.09.95,1.41,0,1.5h-13.6c-.86-.07-.97-1.21-.17-1.48Z"/><path d="M4.29,33.02l10.76-.02c.95.09.95,1.41,0,1.5H4.45c-.86-.07-.97-1.21-.17-1.48Z"/><path d="M26.79,24.02h7.1c.83.12.87,1.37-.09,1.48-2.14.25-4.75-.18-6.93,0-.79-.12-.84-1.25-.08-1.47Z"/></svg>