<svg width="503" height="500" viewBox="0 0 503 500" fill="none" xmlns="http://www.w3.org/2000/svg">
<g clip-path="url(#clip0_3_51)">
<path d="M502.823 250.576C502.823 291.151 502.823 331.702 502.823 372.277C502.823 388.154 503.058 404.032 502.634 419.885C502.305 432.022 496.307 441.407 485.416 446.7C450.181 463.777 414.875 480.736 379.334 497.201C367.879 502.493 356.33 500.141 347.015 491.72C283.013 433.669 219.198 375.406 155.314 317.213C154.443 316.413 153.479 315.708 152.726 314.814C149.41 310.886 146.399 311.027 142.283 314.226C123.136 329.162 103.754 343.816 84.4427 358.564C77.5979 363.786 70.8002 369.102 63.8613 374.23C53.4412 381.921 42.386 381.286 32.9538 372.677C24.8624 365.268 16.7239 357.906 8.67947 350.449C-2.7991 339.817 -2.96375 326.975 8.60891 316.39C30.8839 296.044 53.3471 275.909 75.7397 255.68C80.052 251.792 79.958 247.824 75.4575 243.778C53.4882 223.973 31.4955 204.168 9.54978 184.316C-2.56388 173.355 -2.77558 160.676 9.0323 149.363C16.9591 141.765 25.0976 134.403 33.189 127.017C42.5977 118.432 53.3001 117.749 63.6026 125.512C81.4555 138.942 99.0732 152.632 116.809 166.204C125.37 172.743 134.12 179.047 142.447 185.892C146.493 189.232 149.198 188.902 152.961 185.421C189.867 151.456 226.937 117.655 263.96 83.8076C290.281 59.745 316.578 35.6588 342.922 11.6432C357.412 -1.57598 367.62 -3.15193 385.12 5.17474C417.298 20.4873 449.405 35.9646 481.606 51.2537C495.837 58.0044 502.846 69.0125 502.823 84.8191C502.728 140.071 502.775 195.347 502.775 250.6L502.823 250.576ZM374.747 362.022C375.288 361.693 375.829 361.387 376.37 361.057V136.684C325.963 174.836 276.85 212.024 226.772 249.941C276.968 287.952 325.846 324.999 374.747 362.022Z" fill="#9966CB"/>
</g>
<defs>
<clipPath id="clip0_3_51">
<rect width="502.87" height="500" fill="white"/>
</clipPath>
</defs>
</svg>
