<?xml version="1.0" encoding="UTF-8"?><svg id="Layer_1" xmlns="http://www.w3.org/2000/svg" viewBox="0 0 40.51 40.51"><path d="M4.67.03l30.91-.03c2.65.2,4.71,2.28,4.92,4.92v30.57c-.18,2.72-2.21,4.79-4.92,5.01H5.01c-2.71-.18-4.79-2.22-5.01-4.92V4.83C.24,2.34,2.18.31,4.67.03ZM4.76,1.53c-1.76.25-3.07,1.64-3.26,3.4v30.56c.16,1.9,1.61,3.37,3.51,3.52h30.48c1.9-.16,3.37-1.61,3.52-3.52V5.02c-.16-1.9-1.61-3.37-3.52-3.52l-30.73.03Z"/><path d="M5.6,3.78l29.04-.03c1.11.09,2.02,1,2.11,2.11v28.79c-.09,1.11-1,2.02-2.11,2.11H5.86c-1.11-.09-2.02-1-2.11-2.11V5.77c.14-.99.89-1.77,1.85-1.99ZM22.29,11.27c-.14.03-.26.12-.35.21l-4.66,16.81c-.24.94,1.06,1.38,1.43.49l4.53-16.57c.14-.62-.32-1.08-.94-.94ZM14.04,15.02c-.12.03-.2.1-.3.17-1.78,1.24-3.43,3.23-5.25,4.5-.32.3-.33.82,0,1.12l5.3,4.54c.76.49,1.57-.31,1.07-1.07l-4.63-4,4.63-4.07c.42-.63-.07-1.36-.82-1.2ZM26.04,15.02c-.52.11-.7.79-.39,1.2l4.63,4-4.63,4.07c-.52.73.33,1.58,1.07,1.07l5.49-4.82c.12-.38.03-.62-.24-.9-1.47-1.55-3.69-2.88-5.21-4.45-.21-.19-.46-.23-.73-.17Z"/></svg>