<svg width="500" height="500" viewBox="0 0 500 500" fill="none" xmlns="http://www.w3.org/2000/svg">
<g clip-path="url(#clip0_3_36)">
<path d="M264.615 500H235.321C234.095 499.742 232.804 499.29 231.578 499.226C196.671 496.838 163.569 487.869 133.114 470.835C50.9098 424.765 6.25886 354.433 0.45166 260.421C-2.32289 215.318 7.35578 172.216 29.4877 132.727C75.3646 50.7807 145.696 6.25885 239.45 0.451653C284.682 -2.3229 327.849 7.67839 367.596 29.6167C437.992 68.525 481.03 127.758 496 206.994C497.742 216.351 498.645 225.9 499.871 235.385V264.679C499.613 266.099 499.161 267.454 499.032 268.873C496.516 303.717 487.418 336.753 470.512 367.338C431.604 437.734 372.564 480.836 293.457 496.064C283.908 497.871 274.229 498.71 264.55 500H264.615ZM250.032 30.9717C129.307 30.8427 31.4879 128.533 30.9717 249.645C30.4555 370.306 128.855 468.835 249.903 468.964C370.628 469.093 468.448 371.403 468.964 250.29C469.48 129.63 371.08 31.1008 250.032 30.9717Z" fill="#9966CB"/>
<path d="M129.372 157.698C135.76 157.182 141.244 156.73 146.729 156.278C148.858 156.085 150.923 155.891 152.988 155.375C157.246 154.278 159.634 150.794 159.117 146.729C158.601 142.534 155.698 139.631 151.116 139.824C142.341 140.083 133.566 141.05 124.79 141.244C112.015 141.502 99.2387 141.244 86.5273 141.244C152.342 37.9403 298.426 25.4871 381.662 104.401C373.532 104.981 366.112 106.852 360.047 112.208C347.335 123.435 343.786 140.147 351.4 157.698C355.143 166.28 360.627 174.151 364.757 182.604C370.112 193.638 375.855 204.672 379.727 216.286C385.534 233.837 383.469 251.71 378.371 269.131C368.951 301.394 359.143 333.591 349.529 365.789C349.335 366.563 348.884 367.209 348.174 368.693C324.429 298.038 300.942 228.158 277.262 157.762C284.295 157.182 290.747 156.794 297.2 156.149C303.523 155.504 306.491 153.117 306.878 148.535C307.33 143.18 304.104 139.631 298.297 139.76C290.489 139.954 282.682 140.986 274.939 140.986C250.871 140.921 226.804 140.47 202.8 140.147C199.574 140.147 196.283 139.695 193.057 139.824C188.734 140.018 185.831 143.115 185.701 147.438C185.572 151.697 187.444 154.794 191.831 155.439C197.638 156.278 203.446 156.923 209.253 157.246C212.286 157.44 213.834 158.343 214.931 161.311C224.223 187.121 233.708 212.866 242.999 238.74C243.644 240.547 243.709 242.935 243.128 244.741C229.643 285.585 215.963 326.429 202.349 367.273C202.091 367.983 201.768 368.693 200.994 370.693C176.991 299.2 153.31 228.933 129.436 157.827L129.372 157.698Z" fill="#9966CB"/>
<path d="M253.388 267.26C274.1 323.977 294.425 379.597 314.944 435.863C275.197 449.413 235.321 450.51 194.348 438.895C213.963 381.92 233.514 325.139 253.388 267.196V267.26Z" fill="#9966CB"/>
<path d="M163.892 426.894C66.7827 379.662 27.7454 264.099 70.2025 170.28C101.432 255.904 132.469 340.947 163.892 426.894Z" fill="#9966CB"/>
<path d="M349.142 419.861C355.53 401.407 361.531 383.985 367.596 366.499C383.533 320.493 399.729 274.552 415.344 228.417C423.087 205.51 425.732 181.894 423.022 157.44C468.77 234.934 451.026 359.853 349.142 419.861Z" fill="#9966CB"/>
</g>
<defs>
<clipPath id="clip0_3_36">
<rect width="499.871" height="500" fill="white"/>
</clipPath>
</defs>
</svg>
